<?xml version="1.0" encoding="UTF-8" standalone="no"?>
<!-- Created with Inkscape (http://www.inkscape.org/) -->

<svg
   xmlns:dc="http://purl.org/dc/elements/1.1/"
   xmlns:cc="http://creativecommons.org/ns#"
   xmlns:rdf="http://www.w3.org/1999/02/22-rdf-syntax-ns#"
   xmlns:svg="http://www.w3.org/2000/svg"
   xmlns="http://www.w3.org/2000/svg"
   xmlns:sodipodi="http://sodipodi.sourceforge.net/DTD/sodipodi-0.dtd"
   xmlns:inkscape="http://www.inkscape.org/namespaces/inkscape"
   width="744.09448819"
   height="1052.3622047"
   id="svg2"
   version="1.1"
   inkscape:version="0.48.4 r9939"
   sodipodi:docname="New document 1">
  <defs
     id="defs4">
    <inkscape:path-effect
       effect="envelope"
       id="path-effect4006"
       is_visible="true"
       yy="true"
       xx="true"
       bendpath1="m 263.64975,391.85479 67.85708,1e-5"
       bendpath2="m 332.51698,391.8548 4.04061,60.01317"
       bendpath3="m 257.58884,451.86797 78.96875,0"
       bendpath4="m 263.64976,388.82434 -6.06092,63.04363"
       bendpath1-nodetypes="cc"
       bendpath2-nodetypes="cc"
       bendpath4-nodetypes="cc" />
    <inkscape:path-effect
       bendpath4-nodetypes="cc"
       bendpath2-nodetypes="cc"
       bendpath1-nodetypes="cc"
       bendpath4="m 364.66501,166.59078 -6.06092,63.04363"
       bendpath3="m 358.60409,229.63441 78.96875,0"
       bendpath2="m 433.53223,169.62124 4.04061,60.01317"
       bendpath1="m 364.665,169.62123 67.85708,1e-5"
       xx="true"
       yy="true"
       is_visible="true"
       id="path-effect3818"
       effect="envelope" />
    <inkscape:path-effect
       effect="envelope"
       id="path-effect3768"
       is_visible="true"
       yy="true"
       xx="true"
       bendpath1="m 406.99709,183.99765 67.85708,1e-5"
       bendpath2="m 475.86432,183.99766 4.04061,60.01317"
       bendpath3="m 400.93618,244.01083 78.96875,0"
       bendpath4="m 406.9971,180.9672 -6.06092,63.04363"
       bendpath1-nodetypes="cc"
       bendpath2-nodetypes="cc"
       bendpath4-nodetypes="cc" />
  </defs>
  <sodipodi:namedview
     id="base"
     pagecolor="#ffffff"
     bordercolor="#666666"
     borderopacity="1.0"
     inkscape:pageopacity="0.0"
     inkscape:pageshadow="2"
     inkscape:zoom="0.7"
     inkscape:cx="-170.32714"
     inkscape:cy="634.10276"
     inkscape:document-units="px"
     inkscape:current-layer="layer1"
     showgrid="false"
     inkscape:window-width="1855"
     inkscape:window-height="1056"
     inkscape:window-x="65"
     inkscape:window-y="24"
     inkscape:window-maximized="1" />
  <metadata
     id="metadata7">
    <rdf:RDF>
      <cc:Work
         rdf:about="">
        <dc:format>image/svg+xml</dc:format>
        <dc:type
           rdf:resource="http://purl.org/dc/dcmitype/StillImage" />
        <dc:title></dc:title>
      </cc:Work>
    </rdf:RDF>
  </metadata>
  <g
     inkscape:label="Layer 1"
     inkscape:groupmode="layer"
     id="layer1">
    <g
       id="g3908">
      <path
         transform="translate(28.571429,-8.5714286)"
         d="m 402.85713,472.36218 a 135.71428,102.85714 0 1 1 -271.42856,0 135.71428,102.85714 0 1 1 271.42856,0 z"
         sodipodi:ry="102.85714"
         sodipodi:rx="135.71428"
         sodipodi:cy="472.36218"
         sodipodi:cx="267.14285"
         id="path3753"
         style="fill:#ffffff;fill-opacity:1;stroke:#000000;stroke-opacity:1"
         sodipodi:type="arc" />
      <path
         sodipodi:type="arc"
         style="fill:#ffffff;fill-opacity:1;stroke:#000000;stroke-opacity:1"
         id="path3757"
         sodipodi:cx="267.14285"
         sodipodi:cy="472.36218"
         sodipodi:rx="135.71428"
         sodipodi:ry="102.85714"
         d="m 402.85713,472.36218 a 135.71428,102.85714 0 1 1 -271.42856,0 135.71428,102.85714 0 1 1 271.42856,0 z"
         transform="translate(28.571429,-40)" />
      <path
         inkscape:connector-curvature="0"
         id="path3780"
         d="M 163.21429,414.1479 430,420.21932"
         style="fill:none;stroke:#000000;stroke-width:1px;stroke-linecap:butt;stroke-linejoin:miter;stroke-opacity:1" />
      <path
         inkscape:connector-curvature="0"
         id="path3782"
         d="M 298.57143,534.50504 298.21429,329.1479"
         style="fill:none;stroke:#000000;stroke-width:1px;stroke-linecap:butt;stroke-linejoin:miter;stroke-opacity:1" />
      <path
         inkscape:connector-curvature="0"
         id="path3784"
         d="M 207.14286,353.43361 403.92857,494.1479"
         style="fill:none;stroke:#000000;stroke-width:1px;stroke-linecap:butt;stroke-linejoin:miter;stroke-opacity:1" />
      <path
         inkscape:connector-curvature="0"
         id="path3786"
         d="M 195.71429,500.93361 379.64286,351.6479"
         style="fill:none;stroke:#000000;stroke-width:1px;stroke-linecap:butt;stroke-linejoin:miter;stroke-opacity:1" />
      <path
         inkscape:connector-curvature="0"
         id="path3788"
         d="M 168.57143,467.36218 408.21429,375.21932"
         style="fill:none;stroke:#000000;stroke-width:1px;stroke-linecap:butt;stroke-linejoin:miter;stroke-opacity:1" />
      <path
         inkscape:connector-curvature="0"
         id="path3790"
         d="M 358.57143,523.07647 250.35714,334.86218"
         style="fill:none;stroke:#000000;stroke-width:1px;stroke-linecap:butt;stroke-linejoin:miter;stroke-opacity:1" />
      <path
         inkscape:connector-curvature="0"
         id="path3794"
         d="m 181.78571,375.57647 242.85715,86.42857"
         style="fill:none;stroke:#000000;stroke-width:1px;stroke-linecap:butt;stroke-linejoin:miter;stroke-opacity:1" />
      <path
         inkscape:connector-curvature="0"
         id="path3796"
         d="M 245.35714,528.79075 341.07143,335.57647"
         style="fill:none;stroke:#000000;stroke-width:1px;stroke-linecap:butt;stroke-linejoin:miter;stroke-opacity:1" />
      <path
         inkscape:connector-curvature="0"
         id="path3798"
         d="m 275.37905,533.10605 c -7.53673,-0.91572 -18.46389,-3.00451 -24.98365,-4.77577 l -3.34023,-0.90746 25.24035,-50.71428 25.24035,-50.71429 0.0642,54.10714 0.0642,54.10715 -7.32143,-0.087 c -4.02679,-0.0479 -10.76045,-0.50482 -14.96371,-1.01552 z"
         style="fill:#ff0000;fill-opacity:1;stroke:#000000;stroke-width:0.71428573;stroke-opacity:1" />
      <path
         inkscape:connector-curvature="0"
         id="path3800"
         d="m 190.07849,495.51802 c -6.35212,-6.07671 -12.33205,-13.47363 -16.68053,-20.63313 -1.975,-3.25171 -3.59091,-6.15721 -3.59091,-6.45665 0,-0.29944 2.65178,-1.56807 5.89285,-2.81918 66.81737,-25.79269 115.20983,-44.24479 115.63787,-44.09286 0.4889,0.17353 -94.54845,77.7215 -95.94369,78.28754 -0.32274,0.13093 -2.71475,-1.79765 -5.31559,-4.28572 l 0,0 z"
         style="fill:#ff0000;fill-opacity:1;stroke:#000000;stroke-width:0.71428573;stroke-opacity:1" />
      <path
         inkscape:connector-curvature="0"
         id="path3802"
         d="m 223.02133,414.74783 c -32.60714,-0.77057 -59.39911,-1.50803 -59.5377,-1.63882 -0.1386,-0.13078 0.46927,-2.42796 1.35081,-5.10484 2.98786,-9.07289 10.18868,-22.00093 15.77068,-28.314 l 2.41621,-2.73266 52.5,18.70653 c 28.875,10.28859 53.625,19.12957 55,19.64661 3.14346,1.18204 8.07632,1.22318 -67.5,-0.56282 z"
         style="fill:#ff0000;fill-opacity:1;stroke:#000000;stroke-width:0.71428573;stroke-opacity:1" />
      <path
         inkscape:connector-curvature="0"
         id="path3804"
         d="m 291.23318,412.45896 c -1.76652,-1.29233 -20.85126,-14.97471 -42.41053,-30.40529 l -39.19868,-28.05559 2.77011,-1.69852 c 6.12063,-3.7529 20.40891,-10.23498 28.74813,-13.04198 4.85934,-1.63567 8.92287,-2.87834 9.03005,-2.7615 0.8394,0.91506 44.73636,77.84897 44.53435,78.05099 -0.14387,0.14387 -1.70691,-0.79578 -3.47343,-2.08811 z"
         style="fill:#ff0000;fill-opacity:1;stroke:#000000;stroke-width:0.71428573;stroke-opacity:1" />
      <path
         inkscape:connector-curvature="0"
         id="path3806"
         d="m 299.09276,373.29017 0,-42.65306 4.46429,0.006 c 5.8022,0.007 18.92517,1.67743 28.39285,3.61325 4.125,0.84343 7.58874,1.61472 7.69719,1.71398 0.36651,0.33545 -38.42391,77.84276 -39.4937,78.91254 -0.93798,0.938 -1.06063,-3.87152 -1.06063,-41.59242 z"
         style="fill:#ff0000;fill-opacity:1;stroke:#000000;stroke-width:0.71428573;stroke-opacity:1" />
      <path
         inkscape:connector-curvature="0"
         id="path3808"
         d="m 306.61373,412.30404 c 0.79724,-0.72038 17.61162,-14.43451 37.36528,-30.47583 l 35.91574,-29.16604 5.49186,3.76732 c 5.78141,3.96595 16.25567,12.59155 19.6288,16.1644 l 1.99408,2.11215 -49.49408,19.01394 c -27.22174,10.45766 -50.13694,19.21191 -50.92265,19.45389 -1.41345,0.4353 -1.41322,0.42609 0.021,-0.86983 l 0,0 z"
         style="fill:#ff0000;fill-opacity:1;stroke:#000000;stroke-width:0.71428573;stroke-opacity:1" />
      <path
         inkscape:connector-curvature="0"
         id="path3810"
         d="m 364.53564,439.70306 -58.48569,-20.85167 7.05712,-0.17176 c 11.92815,-0.29033 115.88113,2.32911 116.4873,2.93528 0.91075,0.91075 0.5932,20.38758 -0.40914,25.09363 -1.69451,7.95591 -3.86937,13.93138 -5.05449,13.88738 -0.61017,-0.0227 -27.42797,-9.42445 -59.5951,-20.89286 l 0,0 z"
         style="fill:#ff0000;fill-opacity:1;stroke:#000000;stroke-width:0.71428573;stroke-opacity:1" />
      <path
         inkscape:connector-curvature="0"
         id="path3812"
         d="m 357.78361,519.74425 c -5.34287,-8.69989 -55.05592,-95.83731 -54.8143,-96.07893 0.46825,-0.46825 98.59786,69.80156 98.82016,70.7643 0.25644,1.11062 -8.8437,8.67973 -17.4541,14.51759 -5.57317,3.77861 -23.16785,13.11847 -24.71292,13.11847 -0.22725,0 -1.05472,-1.04464 -1.83884,-2.32143 z"
         style="fill:#ff0000;fill-opacity:1;stroke:#000000;stroke-width:0.71428573;stroke-opacity:1" />
      <path
         sodipodi:type="arc"
         style="fill:#ffffff;fill-opacity:1;stroke:#000000;stroke-opacity:1"
         id="path3814"
         sodipodi:cx="267.14285"
         sodipodi:cy="472.36218"
         sodipodi:rx="135.71428"
         sodipodi:ry="102.85714"
         d="m 402.85713,472.36218 a 135.71428,102.85714 0 1 1 -271.42856,0 135.71428,102.85714 0 1 1 271.42856,0 z"
         transform="matrix(0.81123053,0,0,0.80648473,81.508248,44.124973)" />
      <path
         inkscape:connector-curvature="0"
         id="path3820"
         d="m 167.5,467.36218 -0.35714,29.64286"
         style="fill:none;stroke:#000000;stroke-width:1px;stroke-linecap:butt;stroke-linejoin:miter;stroke-opacity:1" />
      <path
         inkscape:connector-curvature="0"
         id="path3822"
         d="m 194.64286,501.29075 0,31.07143"
         style="fill:none;stroke:#000000;stroke-width:1px;stroke-linecap:butt;stroke-linejoin:miter;stroke-opacity:1" />
      <path
         inkscape:connector-curvature="0"
         id="path3824"
         d="m 245,528.07647 -0.71429,30.71428"
         style="fill:none;stroke:#000000;stroke-width:1px;stroke-linecap:butt;stroke-linejoin:miter;stroke-opacity:1" />
      <path
         inkscape:connector-curvature="0"
         id="path3826"
         d="M 299.28571,534.1479 300,565.93361"
         style="fill:none;stroke:#000000;stroke-width:1px;stroke-linecap:butt;stroke-linejoin:miter;stroke-opacity:1" />
      <path
         inkscape:connector-curvature="0"
         id="path3828"
         d="m 360,523.07647 -0.35714,31.42857"
         style="fill:none;stroke:#000000;stroke-width:1px;stroke-linecap:butt;stroke-linejoin:miter;stroke-opacity:1" />
      <path
         inkscape:connector-curvature="0"
         id="path3830"
         d="m 404.28571,495.21932 -1.42857,30.71429"
         style="fill:none;stroke:#000000;stroke-width:1px;stroke-linecap:butt;stroke-linejoin:miter;stroke-opacity:1" />
      <path
         inkscape:connector-curvature="0"
         id="path3832"
         d="m 425,462.71932 0.71429,30.71429"
         style="fill:none;stroke:#000000;stroke-width:1px;stroke-linecap:butt;stroke-linejoin:miter;stroke-opacity:1" />
      <path
         inkscape:connector-curvature="0"
         id="path3834"
         d="m 189.65817,526.86768 c -8.69393,-8.35785 -15.13565,-16.95563 -19.9917,-26.68295 l -1.89235,-3.79063 0.22838,-13.57143 0.22838,-13.57143 1.70501,3.18146 c 4.60977,8.60156 13.20864,19.3622 20.78242,26.00716 l 3.36717,2.95424 0.0191,14.73214 c 0.0105,8.10268 -0.0516,14.73215 -0.13807,14.73215 -0.0865,0 -2.02522,-1.79582 -4.30837,-3.99071 l 0,0 z"
         style="fill:#ff0000;fill-opacity:1;stroke:#000000;stroke-width:0.35714287;stroke-opacity:1" />
      <path
         inkscape:connector-curvature="0"
         id="path3836"
         d="m 284.48088,565.62062 c -12.05168,-0.84721 -24.2956,-2.90309 -35.17857,-5.90686 l -4.28572,-1.18288 0.0794,-2.67553 c 0.0437,-1.47155 0.18279,-8.09964 0.3092,-14.72911 0.2183,-11.44849 0.26332,-12.05357 0.89682,-12.05357 0.36684,0 2.39734,0.47017 4.51223,1.04482 12.24322,3.32668 25.55522,5.20647 39.78679,5.6183 l 8.0844,0.23395 0.2243,13.42646 c 0.12336,7.38456 0.29927,14.10951 0.39091,14.94433 l 0.1666,1.51786 -6.68959,-0.0624 c -3.67928,-0.0343 -7.41281,-0.11324 -8.29674,-0.17537 z"
         style="fill:#ff0000;fill-opacity:1;stroke:#000000;stroke-width:0.35714287;stroke-opacity:1" />
      <path
         inkscape:connector-curvature="0"
         id="path3838"
         d="m 360.31543,550.45385 c 0.12793,-1.64357 0.23356,-8.38832 0.23474,-14.98831 l 0.002,-12 2.41071,-1.00719 c 3.51944,-1.47041 11.56565,-5.51616 15.64998,-7.86903 7.26839,-4.18712 14.98078,-9.78983 21.75223,-15.80204 1.56675,-1.39108 2.9166,-2.46127 2.99967,-2.3782 0.0831,0.0831 -0.14586,6.91303 -0.50873,15.1777 l -0.65977,15.02668 -2.87562,2.5854 c -9.2659,8.33074 -18.79283,14.65508 -30.99091,20.57293 -3.59016,1.74176 -6.91445,3.28013 -7.3873,3.41861 l -0.85974,0.25177 0.2326,-2.98832 0,0 z"
         style="fill:#ff0000;fill-opacity:1;stroke:#000000;stroke-width:0.35714287;stroke-opacity:1" />
      <path
         inkscape:connector-curvature="0"
         id="path3840"
         d="m 426.23262,486.36434 c -0.0187,-1.75149 -0.14389,-7.52381 -0.27823,-12.82738 -0.24144,-9.53145 -0.23465,-9.66762 0.58727,-11.78572 0.45735,-1.17857 1.36719,-3.899 2.02187,-6.04541 1.18077,-3.87121 1.19231,-3.89081 1.43737,-2.44033 0.97567,5.77492 0.73491,17.25453 -0.50754,24.20003 -0.61833,3.45652 -2.70643,11.52909 -3.08706,11.93452 -0.0768,0.0818 -0.155,-1.28422 -0.17368,-3.03571 l 0,0 z"
         style="fill:#ff0000;fill-opacity:1;stroke:#000000;stroke-width:0.35714287;stroke-opacity:1" />
    </g>
    <g
       id="g3940"
       transform="translate(14.142136,303.04576)">
      <path
         sodipodi:type="arc"
         style="fill:#ffffff;fill-opacity:1;stroke:#000000;stroke-opacity:1"
         id="path3942"
         sodipodi:cx="267.14285"
         sodipodi:cy="472.36218"
         sodipodi:rx="135.71428"
         sodipodi:ry="102.85714"
         d="m 402.85713,472.36218 c 0,56.80643 -60.76135,102.85714 -135.71428,102.85714 -74.95292,0 -135.71428,-46.05071 -135.71428,-102.85714 0,-56.80643 60.76136,-102.85714 135.71428,-102.85714 74.95293,0 135.71428,46.05071 135.71428,102.85714 z"
         transform="translate(28.571429,-8.5714286)" />
      <path
         transform="translate(28.571429,-40)"
         d="m 402.85713,472.36218 c 0,56.80643 -60.76135,102.85714 -135.71428,102.85714 -74.95292,0 -135.71428,-46.05071 -135.71428,-102.85714 0,-56.80643 60.76136,-102.85714 135.71428,-102.85714 74.95293,0 135.71428,46.05071 135.71428,102.85714 z"
         sodipodi:ry="102.85714"
         sodipodi:rx="135.71428"
         sodipodi:cy="472.36218"
         sodipodi:cx="267.14285"
         id="path3944"
         style="fill:#ffffff;fill-opacity:1;stroke:#000000;stroke-opacity:1"
         sodipodi:type="arc" />
      <path
         style="fill:none;stroke:#000000;stroke-width:1px;stroke-linecap:butt;stroke-linejoin:miter;stroke-opacity:1"
         d="M 163.21429,414.1479 430,420.21932"
         id="path3946"
         inkscape:connector-curvature="0" />
      <path
         style="fill:none;stroke:#000000;stroke-width:1px;stroke-linecap:butt;stroke-linejoin:miter;stroke-opacity:1"
         d="M 298.57143,534.50504 298.21429,329.1479"
         id="path3948"
         inkscape:connector-curvature="0" />
      <path
         style="fill:none;stroke:#000000;stroke-width:1px;stroke-linecap:butt;stroke-linejoin:miter;stroke-opacity:1"
         d="M 207.14286,353.43361 403.92857,494.1479"
         id="path3950"
         inkscape:connector-curvature="0" />
      <path
         style="fill:none;stroke:#000000;stroke-width:1px;stroke-linecap:butt;stroke-linejoin:miter;stroke-opacity:1"
         d="M 195.71429,500.93361 379.64286,351.6479"
         id="path3952"
         inkscape:connector-curvature="0" />
      <path
         style="fill:none;stroke:#000000;stroke-width:1px;stroke-linecap:butt;stroke-linejoin:miter;stroke-opacity:1"
         d="M 168.57143,467.36218 408.21429,375.21932"
         id="path3954"
         inkscape:connector-curvature="0" />
      <path
         style="fill:none;stroke:#000000;stroke-width:1px;stroke-linecap:butt;stroke-linejoin:miter;stroke-opacity:1"
         d="M 358.57143,523.07647 250.35714,334.86218"
         id="path3956"
         inkscape:connector-curvature="0" />
      <path
         style="fill:none;stroke:#000000;stroke-width:1px;stroke-linecap:butt;stroke-linejoin:miter;stroke-opacity:1"
         d="m 181.78571,375.57647 242.85715,86.42857"
         id="path3958"
         inkscape:connector-curvature="0" />
      <path
         style="fill:none;stroke:#000000;stroke-width:1px;stroke-linecap:butt;stroke-linejoin:miter;stroke-opacity:1"
         d="M 245.35714,528.79075 341.07143,335.57647"
         id="path3960"
         inkscape:connector-curvature="0" />
      <path
         style="fill:#ff0000;fill-opacity:1;stroke:#000000;stroke-width:0.71428573;stroke-opacity:1"
         d="m 275.37905,533.10605 c -7.53673,-0.91572 -18.46389,-3.00451 -24.98365,-4.77577 l -3.34023,-0.90746 25.24035,-50.71428 25.24035,-50.71429 0.0642,54.10714 0.0642,54.10715 -7.32143,-0.087 c -4.02679,-0.0479 -10.76045,-0.50482 -14.96371,-1.01552 z"
         id="path3962"
         inkscape:connector-curvature="0" />
      <path
         style="fill:#ff0000;fill-opacity:1;stroke:#000000;stroke-width:0.71428573;stroke-opacity:1"
         d="m 190.07849,495.51802 c -6.35212,-6.07671 -12.33205,-13.47363 -16.68053,-20.63313 -1.975,-3.25171 -3.59091,-6.15721 -3.59091,-6.45665 0,-0.29944 2.65178,-1.56807 5.89285,-2.81918 66.81737,-25.79269 115.20983,-44.24479 115.63787,-44.09286 0.4889,0.17353 -94.54845,77.7215 -95.94369,78.28754 -0.32274,0.13093 -2.71475,-1.79765 -5.31559,-4.28572 l 0,0 z"
         id="path3964"
         inkscape:connector-curvature="0" />
      <path
         style="fill:#ff0000;fill-opacity:1;stroke:#000000;stroke-width:0.71428573;stroke-opacity:1"
         d="m 223.02133,414.74783 c -32.60714,-0.77057 -59.39911,-1.50803 -59.5377,-1.63882 -0.1386,-0.13078 0.46927,-2.42796 1.35081,-5.10484 2.98786,-9.07289 10.18868,-22.00093 15.77068,-28.314 l 2.41621,-2.73266 52.5,18.70653 c 28.875,10.28859 53.625,19.12957 55,19.64661 3.14346,1.18204 8.07632,1.22318 -67.5,-0.56282 z"
         id="path3966"
         inkscape:connector-curvature="0" />
      <path
         style="fill:#ff0000;fill-opacity:1;stroke:#000000;stroke-width:0.71428573;stroke-opacity:1"
         d="m 291.23318,412.45896 c -1.76652,-1.29233 -20.85126,-14.97471 -42.41053,-30.40529 l -39.19868,-28.05559 2.77011,-1.69852 c 6.12063,-3.7529 20.40891,-10.23498 28.74813,-13.04198 4.85934,-1.63567 8.92287,-2.87834 9.03005,-2.7615 0.8394,0.91506 44.73636,77.84897 44.53435,78.05099 -0.14387,0.14387 -1.70691,-0.79578 -3.47343,-2.08811 z"
         id="path3968"
         inkscape:connector-curvature="0" />
      <path
         style="fill:#ff0000;fill-opacity:1;stroke:#000000;stroke-width:0.71428573;stroke-opacity:1"
         d="m 299.09276,373.29017 0,-42.65306 4.46429,0.006 c 5.8022,0.007 18.92517,1.67743 28.39285,3.61325 4.125,0.84343 7.58874,1.61472 7.69719,1.71398 0.36651,0.33545 -38.42391,77.84276 -39.4937,78.91254 -0.93798,0.938 -1.06063,-3.87152 -1.06063,-41.59242 z"
         id="path3970"
         inkscape:connector-curvature="0" />
      <path
         style="fill:#ff0000;fill-opacity:1;stroke:#000000;stroke-width:0.71428573;stroke-opacity:1"
         d="m 306.61373,412.30404 c 0.79724,-0.72038 17.61162,-14.43451 37.36528,-30.47583 l 35.91574,-29.16604 5.49186,3.76732 c 5.78141,3.96595 16.25567,12.59155 19.6288,16.1644 l 1.99408,2.11215 -49.49408,19.01394 c -27.22174,10.45766 -50.13694,19.21191 -50.92265,19.45389 -1.41345,0.4353 -1.41322,0.42609 0.021,-0.86983 l 0,0 z"
         id="path3972"
         inkscape:connector-curvature="0" />
      <path
         style="fill:#ff0000;fill-opacity:1;stroke:#000000;stroke-width:0.71428573;stroke-opacity:1"
         d="m 364.53564,439.70306 -58.48569,-20.85167 7.05712,-0.17176 c 11.92815,-0.29033 115.88113,2.32911 116.4873,2.93528 0.91075,0.91075 0.5932,20.38758 -0.40914,25.09363 -1.69451,7.95591 -3.86937,13.93138 -5.05449,13.88738 -0.61017,-0.0227 -27.42797,-9.42445 -59.5951,-20.89286 l 0,0 z"
         id="path3974"
         inkscape:connector-curvature="0" />
      <path
         style="fill:#ff0000;fill-opacity:1;stroke:#000000;stroke-width:0.71428573;stroke-opacity:1"
         d="m 357.78361,519.74425 c -5.34287,-8.69989 -55.05592,-95.83731 -54.8143,-96.07893 0.46825,-0.46825 98.59786,69.80156 98.82016,70.7643 0.25644,1.11062 -8.8437,8.67973 -17.4541,14.51759 -5.57317,3.77861 -23.16785,13.11847 -24.71292,13.11847 -0.22725,0 -1.05472,-1.04464 -1.83884,-2.32143 z"
         id="path3976"
         inkscape:connector-curvature="0" />
      <path
         transform="matrix(0.81123053,0,0,0.80648473,81.508248,44.124973)"
         d="m 402.85713,472.36218 c 0,56.80643 -60.76135,102.85714 -135.71428,102.85714 -74.95292,0 -135.71428,-46.05071 -135.71428,-102.85714 0,-56.80643 60.76136,-102.85714 135.71428,-102.85714 74.95293,0 135.71428,46.05071 135.71428,102.85714 z"
         sodipodi:ry="102.85714"
         sodipodi:rx="135.71428"
         sodipodi:cy="472.36218"
         sodipodi:cx="267.14285"
         id="path3978"
         style="fill:#ffffff;fill-opacity:1;stroke:#000000;stroke-opacity:1"
         sodipodi:type="arc" />
      <path
         style="fill:none;stroke:#000000;stroke-width:1px;stroke-linecap:butt;stroke-linejoin:miter;stroke-opacity:1"
         d="m 167.5,467.36218 -0.35714,29.64286"
         id="path3980"
         inkscape:connector-curvature="0" />
      <path
         style="fill:none;stroke:#000000;stroke-width:1px;stroke-linecap:butt;stroke-linejoin:miter;stroke-opacity:1"
         d="m 194.64286,501.29075 0,31.07143"
         id="path3982"
         inkscape:connector-curvature="0" />
      <path
         style="fill:none;stroke:#000000;stroke-width:1px;stroke-linecap:butt;stroke-linejoin:miter;stroke-opacity:1"
         d="m 245,528.07647 -0.71429,30.71428"
         id="path3984"
         inkscape:connector-curvature="0" />
      <path
         style="fill:none;stroke:#000000;stroke-width:1px;stroke-linecap:butt;stroke-linejoin:miter;stroke-opacity:1"
         d="M 299.28571,534.1479 300,565.93361"
         id="path3986"
         inkscape:connector-curvature="0" />
      <path
         style="fill:none;stroke:#000000;stroke-width:1px;stroke-linecap:butt;stroke-linejoin:miter;stroke-opacity:1"
         d="m 360,523.07647 -0.35714,31.42857"
         id="path3988"
         inkscape:connector-curvature="0" />
      <path
         style="fill:none;stroke:#000000;stroke-width:1px;stroke-linecap:butt;stroke-linejoin:miter;stroke-opacity:1"
         d="m 404.28571,495.21932 -1.42857,30.71429"
         id="path3990"
         inkscape:connector-curvature="0" />
      <path
         style="fill:none;stroke:#000000;stroke-width:1px;stroke-linecap:butt;stroke-linejoin:miter;stroke-opacity:1"
         d="m 425,462.71932 0.71429,30.71429"
         id="path3992"
         inkscape:connector-curvature="0" />
      <path
         style="fill:#ff0000;fill-opacity:1;stroke:#000000;stroke-width:0.35714287;stroke-opacity:1"
         d="m 189.65817,526.86768 c -8.69393,-8.35785 -15.13565,-16.95563 -19.9917,-26.68295 l -1.89235,-3.79063 0.22838,-13.57143 0.22838,-13.57143 1.70501,3.18146 c 4.60977,8.60156 13.20864,19.3622 20.78242,26.00716 l 3.36717,2.95424 0.0191,14.73214 c 0.0105,8.10268 -0.0516,14.73215 -0.13807,14.73215 -0.0865,0 -2.02522,-1.79582 -4.30837,-3.99071 l 0,0 z"
         id="path3994"
         inkscape:connector-curvature="0" />
      <path
         style="fill:#ff0000;fill-opacity:1;stroke:#000000;stroke-width:0.35714287;stroke-opacity:1"
         d="m 284.48088,565.62062 c -12.05168,-0.84721 -24.2956,-2.90309 -35.17857,-5.90686 l -4.28572,-1.18288 0.0794,-2.67553 c 0.0437,-1.47155 0.18279,-8.09964 0.3092,-14.72911 0.2183,-11.44849 0.26332,-12.05357 0.89682,-12.05357 0.36684,0 2.39734,0.47017 4.51223,1.04482 12.24322,3.32668 25.55522,5.20647 39.78679,5.6183 l 8.0844,0.23395 0.2243,13.42646 c 0.12336,7.38456 0.29927,14.10951 0.39091,14.94433 l 0.1666,1.51786 -6.68959,-0.0624 c -3.67928,-0.0343 -7.41281,-0.11324 -8.29674,-0.17537 z"
         id="path3996"
         inkscape:connector-curvature="0" />
      <path
         style="fill:#ff0000;fill-opacity:1;stroke:#000000;stroke-width:0.35714287;stroke-opacity:1"
         d="m 360.31543,550.45385 c 0.12793,-1.64357 0.23356,-8.38832 0.23474,-14.98831 l 0.002,-12 2.41071,-1.00719 c 3.51944,-1.47041 11.56565,-5.51616 15.64998,-7.86903 7.26839,-4.18712 14.98078,-9.78983 21.75223,-15.80204 1.56675,-1.39108 2.9166,-2.46127 2.99967,-2.3782 0.0831,0.0831 -0.14586,6.91303 -0.50873,15.1777 l -0.65977,15.02668 -2.87562,2.5854 c -9.2659,8.33074 -18.79283,14.65508 -30.99091,20.57293 -3.59016,1.74176 -6.91445,3.28013 -7.3873,3.41861 l -0.85974,0.25177 0.2326,-2.98832 0,0 z"
         id="path3998"
         inkscape:connector-curvature="0" />
      <path
         style="fill:#ff0000;fill-opacity:1;stroke:#000000;stroke-width:0.35714287;stroke-opacity:1"
         d="m 426.23262,486.36434 c -0.0187,-1.75149 -0.14389,-7.52381 -0.27823,-12.82738 -0.24144,-9.53145 -0.23465,-9.66762 0.58727,-11.78572 0.45735,-1.17857 1.36719,-3.899 2.02187,-6.04541 1.18077,-3.87121 1.19231,-3.89081 1.43737,-2.44033 0.97567,5.77492 0.73491,17.25453 -0.50754,24.20003 -0.61833,3.45652 -2.70643,11.52909 -3.08706,11.93452 -0.0768,0.0818 -0.155,-1.28422 -0.17368,-3.03571 l 0,0 z"
         id="path4000"
         inkscape:connector-curvature="0" />
    </g>
    <path
       id="path4004"
       style="font-size:40px;font-style:normal;font-variant:normal;font-weight:normal;font-stretch:normal;line-height:125%;letter-spacing:0px;word-spacing:0px;fill:#000000;fill-opacity:1;stroke:none;font-family:DejaVu Sans;-inkscape-font-specification:DejaVu Sans"
       d="m 296.64197,390.9872 c 0.0154,3.436 0.014,6.87138 -1.7e-4,10.29271 0.83678,0.008 1.67387,0.0156 2.51137,0.0238 -0.009,-3.42664 -0.0325,-6.87026 -0.0738,-10.31837 -0.8129,-0.001 -1.62533,-3.5e-4 -2.43741,0.002 z m -31.68757,4.35398 c -0.75693,-0.14765 -1.21388,0.37641 -1.33789,1.58749 -0.13022,1.27175 0.20365,1.99653 0.96873,2.15498 0.35051,0.0726 0.70093,0.14213 1.05127,0.20869 -1.40147,14.82637 -2.82462,31.17221 -4.2342,46.56805 -0.7081,-0.0632 -1.41615,-0.13374 -2.12412,-0.21264 -0.88258,-0.0983 -1.38257,0.45106 -1.50957,1.75118 -0.13334,1.36514 0.24019,2.13721 1.13055,2.2141 2.2255,0.19222 4.45189,0.30897 6.67881,0.37854 0.8591,0.0268 1.36112,-0.64942 1.46636,-1.94538 0.1002,-1.23425 -0.29503,-1.83097 -1.14646,-1.87454 -0.85201,-0.0436 -1.70397,-0.095 -2.55585,-0.15584 0.64497,-7.31884 1.29494,-14.87725 1.94364,-22.40859 4.05397,0.65067 8.10483,1.00102 12.15443,1.22387 -0.44099,7.38377 -0.88703,14.64846 -1.31622,21.57433 -0.85227,-0.002 -1.70452,-0.007 -2.55675,-0.0157 -0.85168,-0.009 -1.33367,0.55118 -1.41886,1.75731 -0.0895,1.26643 0.3092,1.93535 1.16866,1.93177 2.2485,-0.009 4.49723,-0.0403 6.74598,-0.0758 0.85951,-0.0136 1.30634,-0.6667 1.36694,-1.89403 0.0577,-1.16889 -0.32635,-1.71701 -1.17804,-1.71222 -0.72907,0.004 -1.45814,0.007 -2.18721,0.009 0.82452,-14.3279 1.72956,-30.16649 2.49608,-45.59762 0.34879,0.0139 0.69756,0.0269 1.0463,0.039 0.76119,0.0266 1.18517,-0.62383 1.2425,-1.97471 0.0545,-1.28645 -0.3089,-1.95255 -1.06146,-1.97187 -1.66953,-0.0428 -3.33958,-0.10341 -5.01073,-0.19471 -0.75335,-0.0411 -1.18595,0.57609 -1.26756,1.83776 -0.0857,1.32487 0.26749,2.00698 1.02938,2.05653 0.76238,0.0497 1.52456,0.0928 2.28659,0.13057 -0.3657,6.67701 -0.7549,13.45101 -1.15141,20.15955 -4.01205,-0.23907 -8.02571,-0.61035 -12.04341,-1.28838 0.58599,-6.79375 1.17002,-13.52668 1.74745,-20.00166 0.76464,0.12514 1.52892,0.23765 2.29287,0.33922 0.76342,0.10157 1.21008,-0.49787 1.31302,-1.80395 0.098,-1.24378 -0.24368,-1.91583 -0.99876,-2.00749 -1.67507,-0.20321 -3.35193,-0.45889 -5.03106,-0.78656 z m 53.06493,1.9246 c -0.59513,-0.002 -0.86325,0.8511 -0.76985,2.6144 0.20605,3.89052 0.38312,7.75521 0.54138,11.58553 -1.07837,0.0158 -2.15539,0.0251 -3.23122,0.0298 -0.81892,0.004 -1.20678,0.66806 -1.16887,1.95492 0.0398,1.35129 0.47038,2.006 1.2968,1.99979 1.08568,-0.008 2.17246,-0.0211 3.26048,-0.0411 0.33069,8.5887 0.58349,16.98737 0.87547,25.09778 0.12161,3.37833 0.90154,6.08248 2.32736,8.09375 1.42308,1.95214 3.26523,2.90143 5.53387,2.87615 2.04494,-0.0228 4.12209,-0.74655 6.16483,-2.23377 2.07038,-1.55076 3.03417,-3.08338 2.93962,-4.45748 -0.0344,-0.49967 -0.15042,-0.89618 -0.36511,-1.24935 -0.21476,-0.35316 -0.43227,-0.50396 -0.65303,-0.48023 -0.18926,0.0204 -0.44309,0.22207 -0.73429,0.62573 -0.8462,1.14547 -1.99982,2.10832 -3.47514,2.92812 -1.44745,0.75681 -2.84966,1.14271 -4.18173,1.17526 -1.64926,0.0403 -2.98697,-0.61679 -3.99746,-1.98154 -1.01052,-1.36476 -1.55486,-3.20184 -1.64639,-5.50264 -0.3215,-8.08084 -0.60443,-16.41995 -0.96702,-24.93217 3.25874,-0.0854 6.52934,-0.24245 9.81616,-0.55411 0.80656,-0.0764 1.18381,-0.76778 1.09344,-2.08933 -0.0861,-1.25855 -0.54844,-1.86185 -1.3486,-1.7911 -3.26076,0.28847 -6.50394,0.42739 -9.73421,0.49866 -0.17401,-3.82221 -0.3675,-7.6763 -0.591,-11.5547 -0.1013,-1.75781 -0.4187,-2.61024 -0.98549,-2.61231 z m -25.6993,14.03434 c -0.78251,-0.0128 -1.20445,0.64663 -1.23673,1.93984 -0.0339,1.35795 0.35896,2.0255 1.1493,2.03867 1.72466,0.0288 3.44994,0.0525 5.17627,0.0738 -0.10852,10.80414 -0.28957,21.26415 -0.39831,30.94298 -2.52625,-0.001 -5.05238,0.01 -7.5785,0.0281 -0.85174,0.006 -1.2813,0.5538 -1.31919,1.7064 -0.0398,1.21023 0.35484,1.84095 1.21433,1.83059 5.75109,-0.0693 11.50122,-0.0577 17.25139,0.0254 0.89117,0.0129 1.32459,-0.61718 1.30471,-1.82572 -0.019,-1.151 -0.46839,-1.69815 -1.35195,-1.70735 -2.52699,-0.0263 -5.05351,-0.0464 -7.57985,-0.054 0.0696,-10.86021 0.23427,-22.69074 0.27905,-34.90441 -2.30552,-0.0272 -4.60862,-0.0566 -6.91052,-0.0944 z"
       inkscape:path-effect="#path-effect4006"
       inkscape:original-d="m 296.24509,421.14922 0,5 2.84375,0 0,-5 -2.84375,0 z m -36.34375,2.9375 c -0.864,3e-5 -1.3125,0.32878 -1.3125,0.96875 0,0.67203 0.4485,1.00003 1.3125,1 l 1.1875,0 0,23.09375 -2.15625,0 c -0.896,0 -1.34375,0.2975 -1.34375,0.9375 0,0.672 0.44775,1.03125 1.34375,1.03125 l 6.71875,0 c 0.86399,0 1.31249,-0.35925 1.3125,-1.03125 -1e-5,-0.64 -0.44851,-0.9375 -1.3125,-0.9375 l -2.59375,0 0,-11.09375 12.96875,0 0,11.09375 -2.59375,0 c -0.86402,0 -1.31252,0.2975 -1.3125,0.9375 -2e-5,0.672 0.44848,1.03125 1.3125,1.03125 l 6.78125,0 c 0.86397,0 1.28122,-0.35925 1.28125,-1.03125 -3e-5,-0.64 -0.41728,-0.9375 -1.28125,-0.9375 l -2.21875,0 0,-23.09375 1.1875,0 c 0.86397,3e-5 1.31247,-0.32797 1.3125,-1 -3e-5,-0.63997 -0.44853,-0.96872 -1.3125,-0.96875 l -5.75,0 c -0.86402,3e-5 -1.31252,0.32878 -1.3125,0.96875 -2e-5,0.67203 0.44848,1.00003 1.3125,1 l 2.59375,0 0,10.03125 -12.96875,0 0,-10.03125 2.59375,0 c 0.86399,3e-5 1.31249,-0.32797 1.3125,-1 -1e-5,-0.63997 -0.44851,-0.96872 -1.3125,-0.96875 l -5.75,0 z m 60.6875,0 c -0.67201,3e-5 -1.03126,0.41728 -1.03125,1.28125 l 0,5.71875 -3.53125,0 c -0.896,2e-5 -1.34375,0.32877 -1.34375,0.96875 0,0.67202 0.44775,1.00002 1.34375,1 l 3.53125,0 0,12.90625 c -1e-5,1.792 0.68724,3.25575 2.03125,4.34375 1.34399,1.056 3.13424,1.5625 5.40625,1.5625 2.04798,0 4.16848,-0.3585 6.3125,-1.0625 2.17598,-0.736 3.24998,-1.45225 3.25,-2.15625 -2e-5,-0.256 -0.0893,-0.46425 -0.28125,-0.65625 -0.19202,-0.192 -0.40102,-0.28125 -0.625,-0.28125 -0.19202,0 -0.46127,0.0892 -0.78125,0.28125 -0.92802,0.544 -2.15152,0.991 -3.6875,1.375 -1.50402,0.352 -2.93727,0.53125 -4.28125,0.53125 -1.66401,0 -2.97751,-0.35775 -3.9375,-1.09375 -0.96001,-0.736 -1.43751,-1.7215 -1.4375,-2.9375 l 0,-12.8125 10.5625,0 c 0.86398,2e-5 1.31248,-0.32798 1.3125,-1 -2e-5,-0.63998 -0.44852,-0.96873 -1.3125,-0.96875 l -10.5625,0 0,-5.71875 c -1e-5,-0.86397 -0.29751,-1.28122 -0.9375,-1.28125 z m -29.03125,7 c -0.86401,2e-5 -1.31251,0.32877 -1.3125,0.96875 -1e-5,0.67202 0.44849,1.00002 1.3125,1 l 5.65625,0 0,16.09375 -7.6875,0 c -0.864,0 -1.28125,0.2975 -1.28125,0.9375 0,0.672 0.41725,1.03125 1.28125,1.03125 l 17.34375,0 c 0.89598,0 1.34373,-0.35925 1.34375,-1.03125 -2e-5,-0.64 -0.44777,-0.9375 -1.34375,-0.9375 l -7.6875,0 0,-18.0625 -7.625,0 z"
       inkscape:connector-curvature="0" />
    <text
       xml:space="preserve"
       style="font-size:40px;font-style:normal;font-variant:normal;font-weight:normal;font-stretch:normal;line-height:125%;letter-spacing:0px;word-spacing:0px;fill:#000000;fill-opacity:1;stroke:none;font-family:Garuda;-inkscape-font-specification:Garuda"
       x="250.51782"
       y="735.17426"
       id="text4008"
       sodipodi:linespacing="125%"><tspan
         sodipodi:role="line"
         id="tspan4010"
         x="250.51782"
         y="735.17426">Stand</tspan></text>
    <path
       style="fill:#000000;fill-opacity:1;stroke:#000000;stroke-width:0.08928572000000000;stroke-opacity:1"
       d="m 206.79897,832.457 c -1.51916,-1.37665 -5.97868,-5.81359 -7.56059,-7.52232 -5.01054,-5.41225 -8.9505,-10.67182 -12.37355,-16.51786 -1.12084,-1.91422 -2.08096,-3.71693 -3.51121,-6.59257 l -1.25065,-2.51457 0.20971,-11.25 c 0.11535,-6.1875 0.21265,-12.02344 0.21623,-12.96875 0.004,-0.95753 0.0422,-1.71875 0.0871,-1.71875 0.0443,0 0.51218,0.79352 1.0397,1.76339 3.51484,6.46218 8.28248,13.08395 13.9624,19.39236 2.92572,3.24946 4.91643,5.20313 8.50639,8.34812 l 1.82876,1.60209 0.0547,6.26157 c 0.0545,6.23772 -3.6e-4,21.96016 -0.078,22.34229 -0.0224,0.11049 -0.081,0.20089 -0.13019,0.20089 -0.0492,0 -0.49952,-0.37165 -1.00079,-0.82589 z"
       id="path4076"
       inkscape:connector-curvature="0" />
    <path
       style="fill:#000000;fill-opacity:1;stroke:#000000;stroke-width:0.08928572;stroke-opacity:1"
       d="m 208.63029,801.86633 c -1.68071,-1.24617 -4.46743,-3.81143 -6.90753,-6.35861 -6.26728,-6.54231 -11.16771,-13.04992 -15.52572,-20.61769 -1.40729,-2.44379 -1.83249,-3.30646 -1.68223,-3.41299 0.26329,-0.18666 2.69338,-1.32596 3.82418,-1.7929 1.41956,-0.58617 22.29922,-8.63442 22.392,-8.63119 0.0349,10e-4 0.38479,0.55185 0.77765,1.22364 1.35316,2.31393 3.74318,5.80136 5.61542,8.1938 3.63035,4.63907 8.31415,9.44292 13.19246,13.53059 l 1.05365,0.88288 -2.78791,2.26303 c -4.0143,3.25853 -14.36857,11.58026 -16.35949,13.14814 -2.08638,1.64305 -2.69059,2.095 -2.80078,2.095 -0.047,0 -0.40323,-0.23566 -0.7917,-0.5237 z"
       id="path4078"
       inkscape:connector-curvature="0" />
    <path
       style="fill:#000000;fill-opacity:1;stroke:#000000;stroke-width:0.71428573;stroke-opacity:1"
       d="m 184.53485,715.56925 -6.22098,-0.40074 1.64315,-4.69395 c 3.38637,-9.67381 14.18422,-27.80854 17.26081,-28.98914 0.99329,-0.38116 18.18086,5.25676 18.18086,5.96374 0,0.17551 -0.97765,1.74006 -2.17255,3.47679 -3.43664,4.99498 -7.7203,14.49194 -9.07993,20.13038 l -1.24752,5.17353 -6.07143,-0.12994 c -3.33929,-0.0715 -8.87087,-0.31027 -12.29241,-0.53067 z"
       id="path4082"
       inkscape:connector-curvature="0" />
    <path
       style="fill:#000000;fill-opacity:1;stroke:#000000;stroke-width:0.71428573;stroke-opacity:1"
       d="m 231.47011,661.86678 c -3.14285,-2.34488 -5.80373,-4.5171 -5.91306,-4.82717 -0.21481,-0.60923 14.85551,-8.28518 21.27021,-10.83382 5.43887,-2.16093 15.82277,-5.68114 16.74113,-5.67536 0.7442,0.005 6.49284,9.87995 6.00659,10.31837 -0.13625,0.12285 -2.49772,1.03828 -5.24772,2.03429 -7.23067,2.61885 -13.71193,5.69002 -20.625,9.77326 -3.33693,1.97098 -6.16856,3.55889 -6.2925,3.52871 -0.12395,-0.0302 -2.79679,-1.97341 -5.93965,-4.31828 z"
       id="path4084"
       inkscape:connector-curvature="0" />
    <path
       style="fill:#000000;fill-opacity:1;stroke:#000000;stroke-width:0.71428573;stroke-opacity:1"
       d="m 343.25583,647.96649 c -6.07567,-1.50419 -18.79611,-3.15512 -24.31027,-3.15512 l -4.97545,0 0,-5.44163 0,-5.44162 6.25,0.49154 c 12.516,0.98435 32.32143,4.37033 32.32143,5.52574 0,1.10173 -4.28847,9.15436 -4.83171,9.0727 -0.28899,-0.0434 -2.29329,-0.51667 -4.454,-1.05161 z"
       id="path4086"
       inkscape:connector-curvature="0" />
    <path
       style="fill:#000000;fill-opacity:1;stroke:#000000;stroke-width:0.71428573;stroke-opacity:1"
       d="m 402.1844,679.28914 c -2.41018,-2.73721 -5.98104,-5.77045 -16.25318,-13.80615 -1.37917,-1.0789 -1.28401,-1.23119 3.01269,-4.82143 2.44026,-2.03903 4.81649,-3.70733 5.28051,-3.70733 2.08574,0 26.06673,19.63134 25.12787,20.5702 -0.65868,0.65868 -12.59076,5.15006 -13.48734,5.0768 -0.45287,-0.037 -2.10912,-1.52745 -3.68055,-3.31209 z"
       id="path4088"
       inkscape:connector-curvature="0" />
    <path
       style="fill:#000000;fill-opacity:1;stroke:#000000;stroke-width:0.71428573;stroke-opacity:1"
       d="m 431.82726,760.79549 c -2.55357,-0.94065 -6.92917,-2.52772 -9.72355,-3.52682 l -5.08069,-1.81655 1.67748,-4.15301 c 2.1692,-5.37042 3.65131,-12.50853 4.25178,-20.47742 l 0.4798,-6.36746 7.59044,0.19163 c 4.17475,0.10539 8.63509,0.36103 9.91188,0.56808 2.31657,0.37566 2.32162,0.38573 2.41417,4.80837 0.2814,13.44653 -0.54549,20.60029 -3.38133,29.25334 -1.28565,3.92292 -1.50514,3.9639 -8.13998,1.51984 z"
       id="path4090"
       inkscape:connector-curvature="0" />
    <path
       style="fill:#000000;fill-opacity:1;stroke:#000000;stroke-width:0.71428573;stroke-opacity:1"
       d="m 440.39869,782.93911 c 0,-2.91186 -0.2661,-4.47617 -0.71429,-4.19917 -0.45213,0.27943 -0.71429,-1.5402 -0.71429,-4.95784 l 0,-5.75645 c 0,-0.19642 0.24108,-0.39694 0.53572,-0.44558 0.74731,-0.12338 2.37747,-5.78745 1.97892,-6.87584 -0.17982,-0.49108 0.0188,-0.89286 0.44135,-0.89286 0.42255,0 0.61346,-0.40348 0.42422,-0.89662 -0.34857,-0.90835 0.73281,-2.21351 2.02429,-2.44319 0.43768,-0.0778 0.69843,3.6271 0.68637,9.75267 -0.0112,5.71525 -0.29218,9.70986 -0.66663,9.47876 -0.36915,-0.22783 -0.46607,0.71671 -0.2256,2.19852 0.23187,1.42888 0.10825,2.79162 -0.27472,3.02831 -0.38297,0.23669 -0.50086,1.04615 -0.26198,1.7988 0.25987,0.81878 0.097,1.36846 -0.40552,1.36846 -0.51861,0 -0.68284,0.6256 -0.42936,1.63553 0.31887,1.2705 0.097,1.65914 -0.994,1.74132 -1.26319,0.0951 -1.40448,-0.36105 -1.40448,-4.53482 z"
       id="path4102"
       inkscape:connector-curvature="0" />
    <path
       style="fill:#000000;fill-opacity:1;stroke:#000000;stroke-width:0.71428573;stroke-opacity:1"
       d="m 374.21546,854.12034 c 0.25792,-1.28958 0.46894,-8.05123 0.46894,-15.02589 l 0,-12.68119 2.14286,-0.88761 c 1.17857,-0.48818 2.14285,-1.189 2.14285,-1.55738 0,-0.36838 0.32143,-0.47113 0.71429,-0.22833 0.39286,0.2428 0.71429,0.0821 0.71429,-0.35714 0,-0.43923 0.32278,-0.59911 0.71729,-0.35529 0.82315,0.50874 6.42556,-2.44683 6.42556,-3.38983 0,-0.3437 0.32143,-0.42625 0.71429,-0.18345 0.39286,0.2428 0.71428,0.0475 0.71428,-0.43404 0,-0.48152 0.20147,-0.67402 0.44771,-0.42778 0.6058,0.6058 4.55229,-1.48606 4.55229,-2.41297 0,-0.40595 0.281,-0.56443 0.62443,-0.35218 0.34343,0.21225 1.46843,-0.39629 2.5,-1.35231 1.03157,-0.95602 1.87557,-1.55589 1.87557,-1.33304 0,0.98333 4.45938,-2.4121 8.96713,-6.8277 0.96094,-0.94129 1.74716,-1.47645 1.74716,-1.18924 0,0.28722 1.6875,-0.82369 3.75,-2.46869 l 3.75,-2.99089 0.46507,3.82299 c 0.77768,6.39266 0.7042,9.32491 -0.21939,8.7541 -0.61737,-0.38155 -0.70015,1.59059 -0.32802,7.81499 0.33542,5.61031 0.2553,8.32533 -0.24568,8.32533 -0.40887,0 -0.74341,0.47083 -0.74341,1.04629 0,0.57547 -0.63966,1.38864 -1.42146,1.80705 -0.78181,0.4184 -1.34431,1.13832 -1.25,1.5998 0.0943,0.46149 -0.14997,0.86507 -0.54282,0.89684 -1.46444,0.11846 -3.90837,1.86484 -3.7429,2.67459 0.0943,0.46149 -0.14996,0.86506 -0.54282,0.89684 -1.49799,0.12118 -3.94954,1.89536 -3.53834,2.56069 0.23663,0.38288 0.16528,0.65012 -0.15857,0.59387 -1.52176,-0.26436 -2.41191,0.14279 -1.94917,0.89153 0.31445,0.50878 0.19609,0.63085 -0.309,0.31869 -0.45158,-0.27909 -1.62204,0.29742 -2.61036,1.28574 -0.98544,0.98544 -1.7917,1.62743 -1.7917,1.42665 0,-0.20079 -0.94681,0.19423 -2.10401,0.87781 -1.15721,0.68358 -1.94409,1.50164 -1.74862,1.81791 0.19547,0.31628 -0.19617,0.36339 -0.8703,0.1047 -0.8433,-0.3236 -1.06116,-0.2041 -0.6983,0.38302 0.29008,0.46936 0.26245,0.78173 -0.0614,0.69416 -1.13356,-0.30652 -3.82001,0.94715 -3.41922,1.59563 0.22302,0.36086 -0.14549,0.44359 -0.82109,0.18434 -0.89742,-0.34438 -1.0691,-0.21697 -0.64102,0.47568 0.37454,0.60602 0.30753,0.77475 -0.18644,0.46946 -0.97349,-0.60165 -4.53379,0.97034 -4.03297,1.78069 0.20452,0.33091 -0.17972,0.39 -0.85386,0.13131 -0.82601,-0.31697 -1.05893,-0.20051 -0.71428,0.35714 0.34465,0.55765 0.11172,0.67411 -0.71429,0.35714 -0.82601,-0.31697 -1.05893,-0.20051 -0.71428,0.35715 0.34464,0.55765 0.11172,0.67411 -0.71429,0.35714 -0.70507,-0.27056 -1.04651,-0.1804 -0.80383,0.21226 0.23204,0.37544 -0.11702,0.7203 -0.77568,0.76637 -0.65866,0.0461 -1.97108,0.3263 -2.91649,0.62274 -1.62981,0.51105 -1.69462,0.41741 -1.25,-1.80569 l -1e-5,0 z"
       id="path4104"
       inkscape:connector-curvature="0" />
    <path
       style="fill:#000000;fill-opacity:1;stroke:#000000;stroke-width:0.71428573;stroke-opacity:1"
       d="m 371.63458,822.1977 c -1.3145,-2.09533 -7.37346,-12.54001 -11.02103,-18.99852 -0.16798,-0.29742 0.27746,-0.73607 0.98986,-0.97478 7.25545,-2.43114 20.75535,-9.81487 28.43813,-15.55413 4.79703,-3.58353 8.00811,-5.40176 7.18356,-4.06761 -0.21485,0.34763 3.78631,3.75348 8.89147,7.56854 5.10517,3.81507 9.28212,7.24217 9.28212,7.61578 0,0.37361 -1.43902,1.98892 -3.19782,3.58956 -1.75879,1.60065 -2.99484,3.23867 -2.74678,3.64005 0.26686,0.43178 0.0959,0.51031 -0.41862,0.19231 -1.06391,-0.65753 -3.78448,1.64276 -3.15243,2.66544 0.25848,0.41824 0.0983,0.51141 -0.37566,0.21849 -1.04847,-0.64799 -7.35923,3.82358 -6.76141,4.79088 0.25399,0.41097 0.0877,0.49907 -0.38758,0.20533 -0.45785,-0.28297 -2.67715,0.59538 -4.93179,1.95188 -2.25464,1.35649 -5.79874,3.31765 -7.87578,4.35812 -2.07704,1.04047 -3.58713,2.19806 -3.35576,2.57243 0.24132,0.39046 -0.10191,0.48014 -0.80502,0.21033 -0.82601,-0.31697 -1.05894,-0.20051 -0.71429,0.35715 0.34465,0.55765 0.11173,0.67411 -0.71428,0.35714 -0.70507,-0.27056 -1.04651,-0.1804 -0.80383,0.21226 0.23203,0.37544 -0.11702,0.70325 -0.77568,0.72848 -0.65866,0.0252 -2.05902,0.28403 -3.11191,0.57511 -1.6872,0.46643 -2.11859,0.20369 -3.63547,-2.21424 l 0,0 z"
       id="path4106"
       inkscape:connector-curvature="0" />
    <path
       style="fill:#000000;fill-opacity:1;stroke:#000000;stroke-width:0.71428573;stroke-opacity:1"
       d="m 298.70313,868.9821 c -0.75166,-0.43201 -2.69515,-0.58328 -4.43321,-0.34505 -1.84609,0.25303 -3.28101,0.12288 -3.55632,-0.32258 -0.28188,-0.4561 -1.58025,-0.55775 -3.33576,-0.26116 -2.22401,0.37575 -2.74786,0.28113 -2.31564,-0.41822 0.42752,-0.69174 -0.0541,-0.8044 -2.05246,-0.48011 -1.6105,0.26135 -2.61105,0.13754 -2.61105,-0.3231 0,-0.43992 -0.73381,-0.56264 -1.78572,-0.29862 -1.11388,0.27956 -1.78571,0.1452 -1.78571,-0.35715 0,-0.49499 -0.66536,-0.63833 -1.7266,-0.37197 -0.98276,0.24665 -1.83787,0.0996 -1.98487,-0.34145 -0.14204,-0.42614 -1.61325,-0.82737 -3.26936,-0.89163 -1.6561,-0.0643 -3.01291,-0.37957 -3.01513,-0.70068 -0.002,-0.32112 -0.6469,-0.37982 -1.43261,-0.13044 -0.875,0.27771 -1.42858,0.12836 -1.42858,-0.38543 0,-0.46136 -0.47184,-0.65777 -1.04855,-0.43647 -0.5767,0.2213 -1.25207,0.0731 -1.50082,-0.32942 -0.24875,-0.40248 -0.87023,-0.5714 -1.38106,-0.37537 -1.20466,0.46227 -1.76187,-1.70753 -1.7741,-6.90832 -0.006,-2.50549 0.26516,-3.97939 0.68418,-3.72042 0.43263,0.26737 0.76885,-3.2456 0.89286,-9.32892 l 0.19892,-9.7578 2.65171,-0.16011 c 1.62325,-0.098 2.48029,0.11726 2.20974,0.55502 -0.26781,0.43332 0.16499,0.55641 1.09829,0.31234 0.84714,-0.22153 1.54026,-0.074 1.54026,0.32794 0,0.40189 0.64254,0.56269 1.42786,0.35733 0.78533,-0.20537 1.62517,-0.0541 1.86633,0.33606 0.24116,0.3902 1.04549,0.55071 1.78741,0.3567 0.83631,-0.2187 1.17064,-0.0643 0.87976,0.40639 -0.31544,0.5104 0.39164,0.61946 2.15788,0.33284 1.81388,-0.29435 2.47718,-0.18379 2.14285,0.35716 -0.33137,0.53617 0.2114,0.64435 1.71948,0.34274 1.36931,-0.27386 2.30571,-0.1347 2.47313,0.36754 0.19791,0.59374 1.07261,0.60441 3.29545,0.0402 2.71635,-0.68948 2.93149,-0.65332 2.10223,0.35335 -0.82433,1.00069 -0.55846,1.07174 2.46905,0.65986 2.20581,-0.30009 3.39286,-0.19643 3.39286,0.29628 0,0.51519 2.34443,0.60928 7.32143,0.29385 5.46374,-0.34629 7.04957,-0.26173 6.25,0.33323 -0.82199,0.61165 -0.10637,0.74793 3.07388,0.58535 l 4.14532,-0.21191 -0.42349,14.94044 c -0.25709,9.07019 -0.159,15.10416 0.24964,15.35714 1.26298,0.78186 -13.80849,0.72681 -15.16948,-0.0554 l 0,0 z"
       id="path4108"
       inkscape:connector-curvature="0" />
    <path
       style="fill:#000000;fill-opacity:1;stroke:#000000;stroke-width:0.71428573;stroke-opacity:1"
       d="m 286.53455,836.14138 c 0.15297,-0.25064 -1.24538,-0.67404 -3.10744,-0.9409 -4.13207,-0.59218 -15.70131,-2.94924 -19.51094,-3.97506 l -2.78632,-0.75028 5.78548,-11.58189 c 3.18201,-6.37003 6.07835,-11.94501 6.43629,-12.38883 0.478,-0.59266 1.92687,-0.47399 5.45609,0.4469 6.48327,1.69171 19.75304,3.57212 25.29233,3.58409 8.33762,0.018 7.72722,-1.06511 7.72722,13.71165 l 0,12.84051 -12.78541,-0.24524 c -7.03198,-0.13489 -12.66026,-0.45031 -12.5073,-0.70095 z"
       id="path4110"
       inkscape:connector-curvature="0" />
  </g>
</svg>
