<?xml version="1.0" encoding="UTF-8" standalone="no"?>
<!-- Created with Inkscape (http://www.inkscape.org/) -->

<svg
   xmlns:dc="http://purl.org/dc/elements/1.1/"
   xmlns:cc="http://creativecommons.org/ns#"
   xmlns:rdf="http://www.w3.org/1999/02/22-rdf-syntax-ns#"
   xmlns:svg="http://www.w3.org/2000/svg"
   xmlns="http://www.w3.org/2000/svg"
   xmlns:sodipodi="http://sodipodi.sourceforge.net/DTD/sodipodi-0.dtd"
   xmlns:inkscape="http://www.inkscape.org/namespaces/inkscape"
   width="720px"
   height="576px"
   id="svg3818"
   version="1.1"
   inkscape:version="0.48.4 r9939"
   sodipodi:docname="New document 4">
  <defs
     id="defs3820" />
  <sodipodi:namedview
     id="base"
     pagecolor="#ffffff"
     bordercolor="#666666"
     borderopacity="1.0"
     inkscape:pageopacity="0.0"
     inkscape:pageshadow="2"
     inkscape:zoom="0.42426407"
     inkscape:cx="202.53043"
     inkscape:cy="486.55948"
     inkscape:document-units="px"
     inkscape:current-layer="layer1"
     showgrid="false"
     inkscape:window-width="1046"
     inkscape:window-height="765"
     inkscape:window-x="396"
     inkscape:window-y="74"
     inkscape:window-maximized="0" />
  <metadata
     id="metadata3823">
    <rdf:RDF>
      <cc:Work
         rdf:about="">
        <dc:format>image/svg+xml</dc:format>
        <dc:type
           rdf:resource="http://purl.org/dc/dcmitype/StillImage" />
        <dc:title></dc:title>
      </cc:Work>
    </rdf:RDF>
  </metadata>
  <g
     id="layer1"
     inkscape:label="Layer 1"
     inkscape:groupmode="layer">
    <path
       sodipodi:type="arc"
       style="fill:#1e1e1e;fill-opacity:0;stroke:#000000;stroke-width:0.5;stroke-linecap:butt;stroke-linejoin:miter;stroke-miterlimit:4;stroke-opacity:1;stroke-dasharray:none"
       id="path4334"
       sodipodi:cx="342.5"
       sodipodi:cy="311.83334"
       sodipodi:rx="134.16667"
       sodipodi:ry="47.5"
       d="m 476.66667,311.83334 a 134.16667,47.5 0 1 1 -268.33334,0 134.16667,47.5 0 1 1 268.33334,0 z" />
    <path
       d="m 476.66667,311.83334 a 134.16667,47.5 0 1 1 -268.33334,0 134.16667,47.5 0 1 1 268.33334,0 z"
       sodipodi:ry="47.5"
       sodipodi:rx="134.16667"
       sodipodi:cy="311.83334"
       sodipodi:cx="342.5"
       id="path4340"
       style="fill:#ffffff;fill-opacity:1;stroke:#000000;stroke-width:0.50000000000000000;stroke-linecap:butt;stroke-linejoin:miter;stroke-miterlimit:4;stroke-opacity:1;stroke-dasharray:none"
       sodipodi:type="arc"
       transform="translate(0,-16.834175)" />
    <path
       style="fill:none;stroke:#000000;stroke-width:1px;stroke-linecap:butt;stroke-linejoin:miter;stroke-opacity:1"
       d="m 208.5965,294.92506 0,20.32932"
       id="path4342"
       inkscape:connector-curvature="0" />
    <path
       inkscape:connector-curvature="0"
       id="path4344"
       d="m 476.20486,295.27331 0,20.32932"
       style="fill:none;stroke:#000000;stroke-width:1px;stroke-linecap:butt;stroke-linejoin:miter;stroke-opacity:1" />
    <path
       style="fill:none;stroke:#000000;stroke-width:1px;stroke-linecap:butt;stroke-linejoin:miter;stroke-opacity:1"
       d="M 392.14964,251.02551 228.33657,319.96842"
       id="path4352"
       inkscape:connector-curvature="0" />
    <path
       style="fill:none;stroke:#000000;stroke-width:1px;stroke-linecap:butt;stroke-linejoin:miter;stroke-opacity:1"
       d="m 268.70058,255.44493 c 203.88245,50.08673 203.88245,50.38135 203.88245,50.38135"
       id="path4354"
       inkscape:connector-curvature="0" />
    <path
       style="fill:none;stroke:#000000;stroke-width:1px;stroke-linecap:butt;stroke-linejoin:miter;stroke-opacity:1"
       d="m 337.34886,247.19535 c 10.31197,95.16478 10.31197,95.45941 10.31197,95.45941"
       id="path4356"
       inkscape:connector-curvature="0" />
    <path
       style="fill:none;stroke:#000000;stroke-width:1px;stroke-linecap:butt;stroke-linejoin:miter;stroke-opacity:1"
       d="m 309.65385,248.37386 c 104.59287,86.62058 104.59287,86.62058 104.59287,86.62058"
       id="path4358"
       inkscape:connector-curvature="0" />
    <path
       style="fill:none;stroke:#000000;stroke-width:1px;stroke-linecap:butt;stroke-linejoin:miter;stroke-opacity:1"
       d="m 362.39223,248.07923 c -84.55819,88.09372 -84.55819,88.09372 -84.55819,88.09372"
       id="path4360"
       inkscape:connector-curvature="0" />
    <path
       style="fill:none;stroke:#000000;stroke-width:1px;stroke-linecap:butt;stroke-linejoin:miter;stroke-opacity:1"
       d="m 242.18407,263.10525 c 229.80971,20.32932 229.80971,20.32932 229.80971,20.32932"
       id="path4362"
       inkscape:connector-curvature="0" />
    <path
       style="fill:none;stroke:#000000;stroke-width:1px;stroke-linecap:butt;stroke-linejoin:miter;stroke-opacity:1"
       d="M 423.67481,256.62344 C 208.89113,294.92505 208.5965,294.92505 208.5965,294.92505"
       id="path4364"
       inkscape:connector-curvature="0" />
    <path
       d="m 476.66667,311.83334 a 134.16667,47.5 0 1 1 -268.33334,0 134.16667,47.5 0 1 1 268.33334,0 z"
       sodipodi:ry="47.5"
       sodipodi:rx="134.16667"
       sodipodi:cy="311.83334"
       sodipodi:cx="342.5"
       id="path4370"
       style="fill:#ffffff;fill-opacity:1;stroke:#000000;stroke-width:0.5;stroke-linecap:butt;stroke-linejoin:miter;stroke-miterlimit:4;stroke-opacity:1;stroke-dasharray:none"
       sodipodi:type="arc"
       transform="matrix(0.70347007,0,0,0.70347007,99.769147,68.097741)" />
    <path
       style="fill:#000000;fill-opacity:1;stroke:#000000;stroke-width:0.02604167;stroke-linecap:butt;stroke-linejoin:miter;stroke-miterlimit:4;stroke-opacity:1;stroke-dasharray:none"
       d="m 209.07093,303.43809 c -7.1e-4,-1.40126 0.009,-2.53736 0.0218,-2.52468 0.0127,0.0127 0.15123,0.35057 0.30787,0.75087 0.15665,0.40029 0.39428,0.96002 0.52806,1.24384 l 0.24324,0.51604 -0.26143,0.55167 c -0.14378,0.30342 -0.39121,0.8798 -0.54982,1.28084 l -0.28839,0.72916 -0.001,-2.54774 0,0 z"
       id="path4392"
       inkscape:connector-curvature="0" />
    <path
       style="fill:none;stroke:#000000;stroke-width:1px;stroke-linecap:butt;stroke-linejoin:miter;stroke-opacity:1"
       d="m 228.04194,319.96842 0,16.49916"
       id="path4394"
       inkscape:connector-curvature="0" />
    <path
       style="fill:none;stroke:#000000;stroke-width:1.01698089px;stroke-linecap:butt;stroke-linejoin:miter;stroke-opacity:1"
       d="m 277.53941,336.48471 0,16.75953"
       id="path4396"
       inkscape:connector-curvature="0" />
    <path
       style="fill:none;stroke:#000000;stroke-width:1px;stroke-linecap:butt;stroke-linejoin:miter;stroke-opacity:1"
       d="m 347.66083,342.36013 c 0,17.08842 0,17.08842 0,17.08842"
       id="path4400"
       inkscape:connector-curvature="0" />
    <path
       style="fill:none;stroke:#000000;stroke-width:1px;stroke-linecap:butt;stroke-linejoin:miter;stroke-opacity:1"
       d="m 413.36284,334.99444 0,17.08841"
       id="path4402"
       inkscape:connector-curvature="0" />
    <path
       style="fill:none;stroke:#000000;stroke-width:1.00781739px;stroke-linecap:butt;stroke-linejoin:miter;stroke-opacity:1"
       d="m 472.2884,305.83486 0,17.95513"
       id="path4404"
       inkscape:connector-curvature="0" />
    <path
       style="fill:#28170b;fill-opacity:1;stroke:#000000;stroke-width:0.20833333;stroke-linecap:butt;stroke-linejoin:miter;stroke-miterlimit:4;stroke-opacity:1;stroke-dasharray:none"
       d="m 225.67237,317.92175 c -3.70025,-2.25946 -9.08858,-6.73829 -11.29213,-9.38613 -1.15939,-1.39315 -2.78863,-3.91019 -3.62053,-5.59344 -1.2752,-2.58018 -1.49237,-3.41285 -1.38389,-5.30615 l 0.12867,-2.24571 18.1061,-3.22149 c 9.95835,-1.77181 18.25522,-3.12932 18.4375,-3.01667 0.18227,0.11265 0.3314,0.53881 0.3314,0.94701 0,1.42106 2.50181,5.73511 4.75119,8.19282 1.24544,1.36078 3.86037,3.5054 5.81096,4.76581 1.95059,1.26042 3.55737,2.38542 3.57061,2.5 0.0248,0.21444 -32.09274,13.79076 -32.46609,13.72366 -0.11459,-0.0206 -1.18279,-0.63246 -2.37379,-1.35971 z"
       id="path4416"
       inkscape:connector-curvature="0" />
    <path
       style="fill:#28170b;fill-opacity:1;stroke:#000000;stroke-width:0.20833333;stroke-linecap:butt;stroke-linejoin:miter;stroke-miterlimit:4;stroke-opacity:1;stroke-dasharray:none"
       d="m 223.67233,333.42255 c -6.63664,-4.44042 -12.64298,-11.28758 -13.92823,-15.87804 -0.69689,-2.48904 -0.4639,-11.31345 0.31871,-12.07116 0.46086,-0.44619 0.7475,-0.28598 1.64207,0.91779 2.14352,2.88439 8.2784,8.62274 11.38092,10.64528 1.74055,1.13468 3.42805,2.25055 3.75,2.47972 0.48031,0.34189 0.54797,1.82711 0.37702,8.27627 l -0.20833,7.8596 -3.33216,-2.22946 z"
       id="path4418"
       inkscape:connector-curvature="0" />
    <path
       style="fill:#28170b;fill-opacity:1;stroke:#000000;stroke-width:0.20833333;stroke-linecap:butt;stroke-linejoin:miter;stroke-miterlimit:4;stroke-opacity:1;stroke-dasharray:none"
       d="m 323.04616,358.44582 c -15.12626,-0.86886 -35.01631,-3.21544 -44.0625,-5.19839 -0.93208,-0.20432 -0.9375,-0.25126 -0.9375,-8.11423 0,-6.05068 0.12236,-7.90808 0.52083,-7.90597 0.28646,0.002 2.67708,0.37682 5.3125,0.834 16.98535,2.94656 35.27803,4.46347 56.875,4.71636 l 6.25,0.0732 0.11316,8.02018 0.11317,8.02019 -9.27983,-0.0611 c -5.10391,-0.0336 -11.81108,-0.20651 -14.90483,-0.38421 z"
       id="path4420"
       inkscape:connector-curvature="0" />
    <path
       style="fill:#28170b;fill-opacity:1;stroke:#000000;stroke-width:0.20833333;stroke-linecap:butt;stroke-linejoin:miter;stroke-miterlimit:4;stroke-opacity:1;stroke-dasharray:none"
       d="m 327.83782,341.76495 c -10.76069,-0.38848 -21.16194,-1.2652 -31.875,-2.68672 -8.99356,-1.19336 -16.57413,-2.45567 -16.93915,-2.82069 -0.141,-0.141 3.79082,-4.44495 8.73739,-9.56433 l 8.99375,-9.30797 5.99653,0.92937 c 10.28562,1.5941 18.84122,2.30527 30.60732,2.54417 6.24479,0.12679 11.35561,0.34531 11.35739,0.48561 0.002,0.14029 0.47052,4.46259 1.04166,9.60511 0.57115,5.14252 1.03845,9.78315 1.03845,10.3125 0,0.95455 -0.0403,0.96194 -4.89584,0.89818 -2.69271,-0.0354 -9.02083,-0.21321 -14.0625,-0.39523 z"
       id="path4422"
       inkscape:connector-curvature="0" />
    <path
       style="fill:#28170b;fill-opacity:1;stroke:#000000;stroke-width:0.20833333;stroke-linecap:butt;stroke-linejoin:miter;stroke-miterlimit:4;stroke-opacity:1;stroke-dasharray:none"
       d="m 413.87949,343.48241 0,-7.90873 1.14583,-0.25712 c 12.88449,-2.89118 27.50785,-7.81946 36.31243,-12.23781 7.99868,-4.01393 12.61336,-7.06544 17.66047,-11.67822 1.25938,-1.151 2.40411,-2.09273 2.54386,-2.09273 0.13974,0 0.25408,3.36244 0.25408,7.47208 l 0,7.47208 -2.65258,2.69204 c -9.14098,9.27698 -25.22845,16.94614 -48.18076,22.96856 -3.09375,0.81176 -5.95312,1.47653 -6.35416,1.47725 -0.66888,10e-4 -0.72917,-0.65255 -0.72917,-7.9074 z"
       id="path4424"
       inkscape:connector-curvature="0" />
    <path
       style="fill:#28170b;fill-opacity:1;stroke:#000000;stroke-width:0.20833333;stroke-linecap:butt;stroke-linejoin:miter;stroke-miterlimit:4;stroke-opacity:1;stroke-dasharray:none"
       d="m 403.70745,325.45573 c -6.09288,-5.04446 -11.07796,-9.31644 -11.07796,-9.49328 0,-0.17684 0.98437,-0.55156 2.1875,-0.83271 1.20312,-0.28114 4.33743,-1.15653 6.96512,-1.94529 12.54424,-3.76547 21.87832,-8.54884 27.90262,-14.29907 l 2.59685,-2.47871 19.62469,4.90695 c 12.14582,3.03694 19.69405,5.11502 19.80669,5.45291 0.29334,0.88003 -6.49002,7.22166 -10.63839,9.94563 -10.72864,7.0448 -27.75964,13.69008 -45.38796,17.70981 -0.70424,0.16059 -3.32241,-1.79908 -11.97916,-8.96624 z"
       id="path4426"
       inkscape:connector-curvature="0" />
    <path
       style="fill:#28170b;fill-opacity:1;stroke:#000000;stroke-width:0.20833333;stroke-linecap:butt;stroke-linejoin:miter;stroke-miterlimit:4;stroke-opacity:1;stroke-dasharray:none"
       d="m 450.26423,280.93068 -17.5736,-1.60811 -2.21807,-2.35075 c -3.15681,-3.34563 -6.2713,-5.63238 -11.22994,-8.24533 -4.61332,-2.43098 -11.60845,-5.34076 -14.72705,-6.12603 -1.70779,-0.43003 -2.63906,-1.01554 -2.2403,-1.40856 0.50688,-0.49958 19.98124,-3.59649 21.39589,-3.40248 2.39906,0.32903 11.96123,3.33834 17.63487,5.54988 13.01373,5.07265 25.48371,12.77643 29.2558,18.07384 l 0.87441,1.228 -1.79921,-0.0512 c -0.98957,-0.0281 -9.70732,-0.77482 -19.3728,-1.65928 l 0,0 z"
       id="path4428"
       inkscape:connector-curvature="0" />
    <path
       style="fill:#28170b;fill-opacity:1;stroke:#000000;stroke-width:0.20833333;stroke-linecap:butt;stroke-linejoin:miter;stroke-miterlimit:4;stroke-opacity:1;stroke-dasharray:none"
       d="m 373.87949,255.93357 c -1.26042,-0.19448 -5.28536,-0.64915 -8.94431,-1.01038 -3.65896,-0.36124 -6.72102,-0.72517 -6.80459,-0.80874 -0.3141,-0.31409 0.75404,-1.74792 2.77155,-3.7204 l 2.0853,-2.03875 8.67519,0.71325 c 7.97266,0.65549 18.06845,1.78529 18.33499,2.05183 0.25292,0.25292 -12.23182,5.26655 -12.99557,5.21877 -0.45699,-0.0286 -1.86214,-0.2111 -3.12256,-0.40558 z"
       id="path4430"
       inkscape:connector-curvature="0" />
    <path
       style="fill:#28170b;fill-opacity:1;stroke:#000000;stroke-width:0.20833333;stroke-linecap:butt;stroke-linejoin:miter;stroke-miterlimit:4;stroke-opacity:1;stroke-dasharray:none"
       d="m 315.20625,252.18687 c -1.67654,-1.41584 -2.89529,-2.71511 -2.70834,-2.88728 0.3876,-0.35695 15.18541,-1.25184 20.60033,-1.2458 l 3.59375,0.004 0.26042,1.30209 c 0.14323,0.71614 0.26041,1.99972 0.26041,2.85239 l 0,1.55031 -7.77279,0.28941 c -4.27504,0.15918 -8.54067,0.38385 -9.47917,0.49927 -1.60462,0.19733 -1.88813,0.0564 -4.75461,-2.3644 l 0,0 z"
       id="path4432"
       inkscape:connector-curvature="0" />
    <path
       style="fill:#28170b;fill-opacity:1;stroke:#000000;stroke-width:0.20833333;stroke-linecap:butt;stroke-linejoin:miter;stroke-miterlimit:4;stroke-opacity:1;stroke-dasharray:none"
       d="m 256.05885,263.75402 c -5.56437,-0.51316 -9.22398,-1.0207 -9.14161,-1.26781 0.18369,-0.55107 6.9907,-2.83188 14.63879,-4.90499 l 6.21821,-1.68552 8.26096,1.99191 c 4.54353,1.09555 8.26096,2.1151 8.26096,2.26568 0,0.15058 -1.54688,0.69749 -3.4375,1.21537 -1.89063,0.51787 -4.92652,1.48479 -6.74642,2.1487 -3.94531,1.43927 -4.88018,1.45152 -18.05339,0.23666 l 0,0 z"
       id="path4434"
       inkscape:connector-curvature="0" />
    <path
       d="m 476.66667,311.83334 a 134.16667,47.5 0 1 1 -268.33334,0 134.16667,47.5 0 1 1 268.33334,0 z"
       sodipodi:ry="47.5"
       sodipodi:rx="134.16667"
       sodipodi:cy="311.83334"
       sodipodi:cx="342.5"
       id="path4436"
       style="fill:#1e1e1e;fill-opacity:0;stroke:#000000;stroke-width:0.5;stroke-linecap:butt;stroke-linejoin:miter;stroke-miterlimit:4;stroke-opacity:1;stroke-dasharray:none"
       sodipodi:type="arc" />
    <path
       transform="translate(0,-16.834175)"
       sodipodi:type="arc"
       style="fill:#ffffff;fill-opacity:1;stroke:#000000;stroke-width:0.50000000000000000;stroke-linecap:butt;stroke-linejoin:miter;stroke-miterlimit:4;stroke-opacity:1;stroke-dasharray:none"
       id="path4438"
       sodipodi:cx="342.5"
       sodipodi:cy="311.83334"
       sodipodi:rx="134.16667"
       sodipodi:ry="47.5"
       d="m 476.66667,311.83334 a 134.16667,47.5 0 1 1 -268.33334,0 134.16667,47.5 0 1 1 268.33334,0 z" />
    <path
       inkscape:connector-curvature="0"
       id="path4440"
       d="m 208.5965,294.92506 0,20.32932"
       style="fill:none;stroke:#000000;stroke-width:1px;stroke-linecap:butt;stroke-linejoin:miter;stroke-opacity:1" />
    <path
       style="fill:none;stroke:#000000;stroke-width:1px;stroke-linecap:butt;stroke-linejoin:miter;stroke-opacity:1"
       d="m 476.20486,295.27331 0,20.32932"
       id="path4442"
       inkscape:connector-curvature="0" />
    <path
       inkscape:connector-curvature="0"
       id="path4444"
       d="M 392.14964,251.02551 228.33657,319.96842"
       style="fill:none;stroke:#000000;stroke-width:1px;stroke-linecap:butt;stroke-linejoin:miter;stroke-opacity:1" />
    <path
       inkscape:connector-curvature="0"
       id="path4446"
       d="m 268.70058,255.44493 c 203.88245,50.08673 203.88245,50.38135 203.88245,50.38135"
       style="fill:none;stroke:#000000;stroke-width:1px;stroke-linecap:butt;stroke-linejoin:miter;stroke-opacity:1" />
    <path
       inkscape:connector-curvature="0"
       id="path4448"
       d="m 337.34886,247.19535 c 10.31197,95.16478 10.31197,95.45941 10.31197,95.45941"
       style="fill:none;stroke:#000000;stroke-width:1px;stroke-linecap:butt;stroke-linejoin:miter;stroke-opacity:1" />
    <path
       inkscape:connector-curvature="0"
       id="path4450"
       d="m 309.65385,248.37386 c 104.59287,86.62058 104.59287,86.62058 104.59287,86.62058"
       style="fill:none;stroke:#000000;stroke-width:1px;stroke-linecap:butt;stroke-linejoin:miter;stroke-opacity:1" />
    <path
       inkscape:connector-curvature="0"
       id="path4452"
       d="m 362.39223,248.07923 c -84.55819,88.09372 -84.55819,88.09372 -84.55819,88.09372"
       style="fill:none;stroke:#000000;stroke-width:1px;stroke-linecap:butt;stroke-linejoin:miter;stroke-opacity:1" />
    <path
       inkscape:connector-curvature="0"
       id="path4454"
       d="m 242.18407,263.10525 c 229.80971,20.32932 229.80971,20.32932 229.80971,20.32932"
       style="fill:none;stroke:#000000;stroke-width:1px;stroke-linecap:butt;stroke-linejoin:miter;stroke-opacity:1" />
    <path
       inkscape:connector-curvature="0"
       id="path4456"
       d="M 423.67481,256.62344 C 208.89113,294.92505 208.5965,294.92505 208.5965,294.92505"
       style="fill:none;stroke:#000000;stroke-width:1px;stroke-linecap:butt;stroke-linejoin:miter;stroke-opacity:1" />
    <path
       transform="matrix(0.70347007,0,0,0.70347007,99.769147,68.097741)"
       sodipodi:type="arc"
       style="fill:#ffffff;fill-opacity:1;stroke:#000000;stroke-width:0.5;stroke-linecap:butt;stroke-linejoin:miter;stroke-miterlimit:4;stroke-opacity:1;stroke-dasharray:none"
       id="path4458"
       sodipodi:cx="342.5"
       sodipodi:cy="311.83334"
       sodipodi:rx="134.16667"
       sodipodi:ry="47.5"
       d="m 476.66667,311.83334 a 134.16667,47.5 0 1 1 -268.33334,0 134.16667,47.5 0 1 1 268.33334,0 z" />
    <path
       inkscape:connector-curvature="0"
       id="path4460"
       d="m 209.07093,303.43809 c -7.1e-4,-1.40126 0.009,-2.53736 0.0218,-2.52468 0.0127,0.0127 0.15123,0.35057 0.30787,0.75087 0.15665,0.40029 0.39428,0.96002 0.52806,1.24384 l 0.24324,0.51604 -0.26143,0.55167 c -0.14378,0.30342 -0.39121,0.8798 -0.54982,1.28084 l -0.28839,0.72916 -0.001,-2.54774 0,0 z"
       style="fill:#000000;fill-opacity:1;stroke:#000000;stroke-width:0.02604167;stroke-linecap:butt;stroke-linejoin:miter;stroke-miterlimit:4;stroke-opacity:1;stroke-dasharray:none" />
    <path
       inkscape:connector-curvature="0"
       id="path4462"
       d="m 228.04194,319.96842 0,16.49916"
       style="fill:none;stroke:#000000;stroke-width:1px;stroke-linecap:butt;stroke-linejoin:miter;stroke-opacity:1" />
    <path
       inkscape:connector-curvature="0"
       id="path4464"
       d="m 277.53941,336.48471 0,16.75953"
       style="fill:none;stroke:#000000;stroke-width:1.01698089px;stroke-linecap:butt;stroke-linejoin:miter;stroke-opacity:1" />
    <path
       inkscape:connector-curvature="0"
       id="path4466"
       d="m 347.66083,342.36013 c 0,17.08842 0,17.08842 0,17.08842"
       style="fill:none;stroke:#000000;stroke-width:1px;stroke-linecap:butt;stroke-linejoin:miter;stroke-opacity:1" />
    <path
       inkscape:connector-curvature="0"
       id="path4468"
       d="m 413.36284,334.99444 0,17.08841"
       style="fill:none;stroke:#000000;stroke-width:1px;stroke-linecap:butt;stroke-linejoin:miter;stroke-opacity:1" />
    <path
       inkscape:connector-curvature="0"
       id="path4470"
       d="m 472.2884,305.83486 0,17.95513"
       style="fill:none;stroke:#000000;stroke-width:1.00781739px;stroke-linecap:butt;stroke-linejoin:miter;stroke-opacity:1" />
    <path
       inkscape:connector-curvature="0"
       id="path4472"
       d="m 225.67237,317.92175 c -3.70025,-2.25946 -9.08858,-6.73829 -11.29213,-9.38613 -1.15939,-1.39315 -2.78863,-3.91019 -3.62053,-5.59344 -1.2752,-2.58018 -1.49237,-3.41285 -1.38389,-5.30615 l 0.12867,-2.24571 18.1061,-3.22149 c 9.95835,-1.77181 18.25522,-3.12932 18.4375,-3.01667 0.18227,0.11265 0.3314,0.53881 0.3314,0.94701 0,1.42106 2.50181,5.73511 4.75119,8.19282 1.24544,1.36078 3.86037,3.5054 5.81096,4.76581 1.95059,1.26042 3.55737,2.38542 3.57061,2.5 0.0248,0.21444 -32.09274,13.79076 -32.46609,13.72366 -0.11459,-0.0206 -1.18279,-0.63246 -2.37379,-1.35971 z"
       style="fill:#28170b;fill-opacity:1;stroke:#000000;stroke-width:0.20833333;stroke-linecap:butt;stroke-linejoin:miter;stroke-miterlimit:4;stroke-opacity:1;stroke-dasharray:none" />
    <path
       inkscape:connector-curvature="0"
       id="path4474"
       d="m 223.67233,333.42255 c -6.63664,-4.44042 -12.64298,-11.28758 -13.92823,-15.87804 -0.69689,-2.48904 -0.4639,-11.31345 0.31871,-12.07116 0.46086,-0.44619 0.7475,-0.28598 1.64207,0.91779 2.14352,2.88439 8.2784,8.62274 11.38092,10.64528 1.74055,1.13468 3.42805,2.25055 3.75,2.47972 0.48031,0.34189 0.54797,1.82711 0.37702,8.27627 l -0.20833,7.8596 -3.33216,-2.22946 z"
       style="fill:#28170b;fill-opacity:1;stroke:#000000;stroke-width:0.20833333;stroke-linecap:butt;stroke-linejoin:miter;stroke-miterlimit:4;stroke-opacity:1;stroke-dasharray:none" />
    <path
       inkscape:connector-curvature="0"
       id="path4476"
       d="m 323.04616,358.44582 c -15.12626,-0.86886 -35.01631,-3.21544 -44.0625,-5.19839 -0.93208,-0.20432 -0.9375,-0.25126 -0.9375,-8.11423 0,-6.05068 0.12236,-7.90808 0.52083,-7.90597 0.28646,0.002 2.67708,0.37682 5.3125,0.834 16.98535,2.94656 35.27803,4.46347 56.875,4.71636 l 6.25,0.0732 0.11316,8.02018 0.11317,8.02019 -9.27983,-0.0611 c -5.10391,-0.0336 -11.81108,-0.20651 -14.90483,-0.38421 z"
       style="fill:#28170b;fill-opacity:1;stroke:#000000;stroke-width:0.20833333;stroke-linecap:butt;stroke-linejoin:miter;stroke-miterlimit:4;stroke-opacity:1;stroke-dasharray:none" />
    <path
       inkscape:connector-curvature="0"
       id="path4478"
       d="m 327.83782,341.76495 c -10.76069,-0.38848 -21.16194,-1.2652 -31.875,-2.68672 -8.99356,-1.19336 -16.57413,-2.45567 -16.93915,-2.82069 -0.141,-0.141 3.79082,-4.44495 8.73739,-9.56433 l 8.99375,-9.30797 5.99653,0.92937 c 10.28562,1.5941 18.84122,2.30527 30.60732,2.54417 6.24479,0.12679 11.35561,0.34531 11.35739,0.48561 0.002,0.14029 0.47052,4.46259 1.04166,9.60511 0.57115,5.14252 1.03845,9.78315 1.03845,10.3125 0,0.95455 -0.0403,0.96194 -4.89584,0.89818 -2.69271,-0.0354 -9.02083,-0.21321 -14.0625,-0.39523 z"
       style="fill:#28170b;fill-opacity:1;stroke:#000000;stroke-width:0.20833333;stroke-linecap:butt;stroke-linejoin:miter;stroke-miterlimit:4;stroke-opacity:1;stroke-dasharray:none" />
    <path
       inkscape:connector-curvature="0"
       id="path4480"
       d="m 413.87949,343.48241 0,-7.90873 1.14583,-0.25712 c 12.88449,-2.89118 27.50785,-7.81946 36.31243,-12.23781 7.99868,-4.01393 12.61336,-7.06544 17.66047,-11.67822 1.25938,-1.151 2.40411,-2.09273 2.54386,-2.09273 0.13974,0 0.25408,3.36244 0.25408,7.47208 l 0,7.47208 -2.65258,2.69204 c -9.14098,9.27698 -25.22845,16.94614 -48.18076,22.96856 -3.09375,0.81176 -5.95312,1.47653 -6.35416,1.47725 -0.66888,10e-4 -0.72917,-0.65255 -0.72917,-7.9074 z"
       style="fill:#28170b;fill-opacity:1;stroke:#000000;stroke-width:0.20833333;stroke-linecap:butt;stroke-linejoin:miter;stroke-miterlimit:4;stroke-opacity:1;stroke-dasharray:none" />
    <path
       inkscape:connector-curvature="0"
       id="path4482"
       d="m 403.70745,325.45573 c -6.09288,-5.04446 -11.07796,-9.31644 -11.07796,-9.49328 0,-0.17684 0.98437,-0.55156 2.1875,-0.83271 1.20312,-0.28114 4.33743,-1.15653 6.96512,-1.94529 12.54424,-3.76547 21.87832,-8.54884 27.90262,-14.29907 l 2.59685,-2.47871 19.62469,4.90695 c 12.14582,3.03694 19.69405,5.11502 19.80669,5.45291 0.29334,0.88003 -6.49002,7.22166 -10.63839,9.94563 -10.72864,7.0448 -27.75964,13.69008 -45.38796,17.70981 -0.70424,0.16059 -3.32241,-1.79908 -11.97916,-8.96624 z"
       style="fill:#28170b;fill-opacity:1;stroke:#000000;stroke-width:0.20833333;stroke-linecap:butt;stroke-linejoin:miter;stroke-miterlimit:4;stroke-opacity:1;stroke-dasharray:none" />
    <path
       inkscape:connector-curvature="0"
       id="path4484"
       d="m 450.26423,280.93068 -17.5736,-1.60811 -2.21807,-2.35075 c -3.15681,-3.34563 -6.2713,-5.63238 -11.22994,-8.24533 -4.61332,-2.43098 -11.60845,-5.34076 -14.72705,-6.12603 -1.70779,-0.43003 -2.63906,-1.01554 -2.2403,-1.40856 0.50688,-0.49958 19.98124,-3.59649 21.39589,-3.40248 2.39906,0.32903 11.96123,3.33834 17.63487,5.54988 13.01373,5.07265 25.48371,12.77643 29.2558,18.07384 l 0.87441,1.228 -1.79921,-0.0512 c -0.98957,-0.0281 -9.70732,-0.77482 -19.3728,-1.65928 l 0,0 z"
       style="fill:#28170b;fill-opacity:1;stroke:#000000;stroke-width:0.20833333;stroke-linecap:butt;stroke-linejoin:miter;stroke-miterlimit:4;stroke-opacity:1;stroke-dasharray:none" />
    <path
       inkscape:connector-curvature="0"
       id="path4486"
       d="m 373.87949,255.93357 c -1.26042,-0.19448 -5.28536,-0.64915 -8.94431,-1.01038 -3.65896,-0.36124 -6.72102,-0.72517 -6.80459,-0.80874 -0.3141,-0.31409 0.75404,-1.74792 2.77155,-3.7204 l 2.0853,-2.03875 8.67519,0.71325 c 7.97266,0.65549 18.06845,1.78529 18.33499,2.05183 0.25292,0.25292 -12.23182,5.26655 -12.99557,5.21877 -0.45699,-0.0286 -1.86214,-0.2111 -3.12256,-0.40558 z"
       style="fill:#28170b;fill-opacity:1;stroke:#000000;stroke-width:0.20833333;stroke-linecap:butt;stroke-linejoin:miter;stroke-miterlimit:4;stroke-opacity:1;stroke-dasharray:none" />
    <path
       inkscape:connector-curvature="0"
       id="path4488"
       d="m 315.20625,252.18687 c -1.67654,-1.41584 -2.89529,-2.71511 -2.70834,-2.88728 0.3876,-0.35695 15.18541,-1.25184 20.60033,-1.2458 l 3.59375,0.004 0.26042,1.30209 c 0.14323,0.71614 0.26041,1.99972 0.26041,2.85239 l 0,1.55031 -7.77279,0.28941 c -4.27504,0.15918 -8.54067,0.38385 -9.47917,0.49927 -1.60462,0.19733 -1.88813,0.0564 -4.75461,-2.3644 l 0,0 z"
       style="fill:#28170b;fill-opacity:1;stroke:#000000;stroke-width:0.20833333;stroke-linecap:butt;stroke-linejoin:miter;stroke-miterlimit:4;stroke-opacity:1;stroke-dasharray:none" />
    <path
       inkscape:connector-curvature="0"
       id="path4490"
       d="m 256.05885,263.75402 c -5.56437,-0.51316 -9.22398,-1.0207 -9.14161,-1.26781 0.18369,-0.55107 6.9907,-2.83188 14.63879,-4.90499 l 6.21821,-1.68552 8.26096,1.99191 c 4.54353,1.09555 8.26096,2.1151 8.26096,2.26568 0,0.15058 -1.54688,0.69749 -3.4375,1.21537 -1.89063,0.51787 -4.92652,1.48479 -6.74642,2.1487 -3.94531,1.43927 -4.88018,1.45152 -18.05339,0.23666 l 0,0 z"
       style="fill:#28170b;fill-opacity:1;stroke:#000000;stroke-width:0.20833333;stroke-linecap:butt;stroke-linejoin:miter;stroke-miterlimit:4;stroke-opacity:1;stroke-dasharray:none" />
    <path
       d="m 476.66667,311.83334 a 134.16667,47.5 0 1 1 -268.33334,0 134.16667,47.5 0 1 1 268.33334,0 z"
       sodipodi:ry="47.5"
       sodipodi:rx="134.16667"
       sodipodi:cy="311.83334"
       sodipodi:cx="342.5"
       id="path4548"
       style="fill:#1e1e1e;fill-opacity:0;stroke:#000000;stroke-width:0.5;stroke-linecap:butt;stroke-linejoin:miter;stroke-miterlimit:4;stroke-opacity:1;stroke-dasharray:none"
       sodipodi:type="arc" />
    <path
       transform="translate(0,-16.834175)"
       sodipodi:type="arc"
       style="fill:#ffffff;fill-opacity:1;stroke:#000000;stroke-width:0.50000000000000000;stroke-linecap:butt;stroke-linejoin:miter;stroke-miterlimit:4;stroke-opacity:1;stroke-dasharray:none"
       id="path4550"
       sodipodi:cx="342.5"
       sodipodi:cy="311.83334"
       sodipodi:rx="134.16667"
       sodipodi:ry="47.5"
       d="m 476.66667,311.83334 a 134.16667,47.5 0 1 1 -268.33334,0 134.16667,47.5 0 1 1 268.33334,0 z" />
    <path
       inkscape:connector-curvature="0"
       id="path4552"
       d="m 208.5965,294.92506 0,20.32932"
       style="fill:none;stroke:#000000;stroke-width:1px;stroke-linecap:butt;stroke-linejoin:miter;stroke-opacity:1" />
    <path
       style="fill:none;stroke:#000000;stroke-width:1px;stroke-linecap:butt;stroke-linejoin:miter;stroke-opacity:1"
       d="m 476.20486,295.27331 0,20.32932"
       id="path4554"
       inkscape:connector-curvature="0" />
    <path
       inkscape:connector-curvature="0"
       id="path4556"
       d="M 392.14964,251.02551 228.33657,319.96842"
       style="fill:none;stroke:#000000;stroke-width:1px;stroke-linecap:butt;stroke-linejoin:miter;stroke-opacity:1" />
    <path
       inkscape:connector-curvature="0"
       id="path4558"
       d="m 268.70058,255.44493 c 203.88245,50.08673 203.88245,50.38135 203.88245,50.38135"
       style="fill:none;stroke:#000000;stroke-width:1px;stroke-linecap:butt;stroke-linejoin:miter;stroke-opacity:1" />
    <path
       inkscape:connector-curvature="0"
       id="path4560"
       d="m 337.34886,247.19535 c 10.31197,95.16478 10.31197,95.45941 10.31197,95.45941"
       style="fill:none;stroke:#000000;stroke-width:1px;stroke-linecap:butt;stroke-linejoin:miter;stroke-opacity:1" />
    <path
       inkscape:connector-curvature="0"
       id="path4562"
       d="m 309.65385,248.37386 c 104.59287,86.62058 104.59287,86.62058 104.59287,86.62058"
       style="fill:none;stroke:#000000;stroke-width:1px;stroke-linecap:butt;stroke-linejoin:miter;stroke-opacity:1" />
    <path
       inkscape:connector-curvature="0"
       id="path4564"
       d="m 362.39223,248.07923 c -84.55819,88.09372 -84.55819,88.09372 -84.55819,88.09372"
       style="fill:none;stroke:#000000;stroke-width:1px;stroke-linecap:butt;stroke-linejoin:miter;stroke-opacity:1" />
    <path
       inkscape:connector-curvature="0"
       id="path4566"
       d="m 242.18407,263.10525 c 229.80971,20.32932 229.80971,20.32932 229.80971,20.32932"
       style="fill:none;stroke:#000000;stroke-width:1px;stroke-linecap:butt;stroke-linejoin:miter;stroke-opacity:1" />
    <path
       inkscape:connector-curvature="0"
       id="path4568"
       d="M 423.67481,256.62344 C 208.89113,294.92505 208.5965,294.92505 208.5965,294.92505"
       style="fill:none;stroke:#000000;stroke-width:1px;stroke-linecap:butt;stroke-linejoin:miter;stroke-opacity:1" />
    <path
       transform="matrix(0.70347007,0,0,0.70347007,99.769147,68.097741)"
       sodipodi:type="arc"
       style="fill:#ffffff;fill-opacity:1;stroke:#000000;stroke-width:0.5;stroke-linecap:butt;stroke-linejoin:miter;stroke-miterlimit:4;stroke-opacity:1;stroke-dasharray:none"
       id="path4570"
       sodipodi:cx="342.5"
       sodipodi:cy="311.83334"
       sodipodi:rx="134.16667"
       sodipodi:ry="47.5"
       d="m 476.66667,311.83334 a 134.16667,47.5 0 1 1 -268.33334,0 134.16667,47.5 0 1 1 268.33334,0 z" />
    <path
       inkscape:connector-curvature="0"
       id="path4572"
       d="m 209.07093,303.43809 c -7.1e-4,-1.40126 0.009,-2.53736 0.0218,-2.52468 0.0127,0.0127 0.15123,0.35057 0.30787,0.75087 0.15665,0.40029 0.39428,0.96002 0.52806,1.24384 l 0.24324,0.51604 -0.26143,0.55167 c -0.14378,0.30342 -0.39121,0.8798 -0.54982,1.28084 l -0.28839,0.72916 -0.001,-2.54774 0,0 z"
       style="fill:#000000;fill-opacity:1;stroke:#000000;stroke-width:0.02604167;stroke-linecap:butt;stroke-linejoin:miter;stroke-miterlimit:4;stroke-opacity:1;stroke-dasharray:none" />
    <path
       inkscape:connector-curvature="0"
       id="path4574"
       d="m 228.04194,319.96842 0,16.49916"
       style="fill:none;stroke:#000000;stroke-width:1px;stroke-linecap:butt;stroke-linejoin:miter;stroke-opacity:1" />
    <path
       inkscape:connector-curvature="0"
       id="path4576"
       d="m 277.53941,336.48471 0,16.75953"
       style="fill:none;stroke:#000000;stroke-width:1.01698089px;stroke-linecap:butt;stroke-linejoin:miter;stroke-opacity:1" />
    <path
       inkscape:connector-curvature="0"
       id="path4578"
       d="m 347.66083,342.36013 c 0,17.08842 0,17.08842 0,17.08842"
       style="fill:none;stroke:#000000;stroke-width:1px;stroke-linecap:butt;stroke-linejoin:miter;stroke-opacity:1" />
    <path
       inkscape:connector-curvature="0"
       id="path4580"
       d="m 413.36284,334.99444 0,17.08841"
       style="fill:none;stroke:#000000;stroke-width:1px;stroke-linecap:butt;stroke-linejoin:miter;stroke-opacity:1" />
    <path
       inkscape:connector-curvature="0"
       id="path4582"
       d="m 472.2884,305.83486 0,17.95513"
       style="fill:none;stroke:#000000;stroke-width:1.00781739px;stroke-linecap:butt;stroke-linejoin:miter;stroke-opacity:1" />
    <path
       inkscape:connector-curvature="0"
       id="path4584"
       d="m 225.67237,317.92175 c -3.70025,-2.25946 -9.08858,-6.73829 -11.29213,-9.38613 -1.15939,-1.39315 -2.78863,-3.91019 -3.62053,-5.59344 -1.2752,-2.58018 -1.49237,-3.41285 -1.38389,-5.30615 l 0.12867,-2.24571 18.1061,-3.22149 c 9.95835,-1.77181 18.25522,-3.12932 18.4375,-3.01667 0.18227,0.11265 0.3314,0.53881 0.3314,0.94701 0,1.42106 2.50181,5.73511 4.75119,8.19282 1.24544,1.36078 3.86037,3.5054 5.81096,4.76581 1.95059,1.26042 3.55737,2.38542 3.57061,2.5 0.0248,0.21444 -32.09274,13.79076 -32.46609,13.72366 -0.11459,-0.0206 -1.18279,-0.63246 -2.37379,-1.35971 z"
       style="fill:#28170b;fill-opacity:1;stroke:#000000;stroke-width:0.20833333;stroke-linecap:butt;stroke-linejoin:miter;stroke-miterlimit:4;stroke-opacity:1;stroke-dasharray:none" />
    <path
       inkscape:connector-curvature="0"
       id="path4586"
       d="m 223.67233,333.42255 c -6.63664,-4.44042 -12.64298,-11.28758 -13.92823,-15.87804 -0.69689,-2.48904 -0.4639,-11.31345 0.31871,-12.07116 0.46086,-0.44619 0.7475,-0.28598 1.64207,0.91779 2.14352,2.88439 8.2784,8.62274 11.38092,10.64528 1.74055,1.13468 3.42805,2.25055 3.75,2.47972 0.48031,0.34189 0.54797,1.82711 0.37702,8.27627 l -0.20833,7.8596 -3.33216,-2.22946 z"
       style="fill:#28170b;fill-opacity:1;stroke:#000000;stroke-width:0.20833333;stroke-linecap:butt;stroke-linejoin:miter;stroke-miterlimit:4;stroke-opacity:1;stroke-dasharray:none" />
    <path
       inkscape:connector-curvature="0"
       id="path4588"
       d="m 323.04616,358.44582 c -15.12626,-0.86886 -35.01631,-3.21544 -44.0625,-5.19839 -0.93208,-0.20432 -0.9375,-0.25126 -0.9375,-8.11423 0,-6.05068 0.12236,-7.90808 0.52083,-7.90597 0.28646,0.002 2.67708,0.37682 5.3125,0.834 16.98535,2.94656 35.27803,4.46347 56.875,4.71636 l 6.25,0.0732 0.11316,8.02018 0.11317,8.02019 -9.27983,-0.0611 c -5.10391,-0.0336 -11.81108,-0.20651 -14.90483,-0.38421 z"
       style="fill:#28170b;fill-opacity:1;stroke:#000000;stroke-width:0.20833333;stroke-linecap:butt;stroke-linejoin:miter;stroke-miterlimit:4;stroke-opacity:1;stroke-dasharray:none" />
    <path
       inkscape:connector-curvature="0"
       id="path4590"
       d="m 327.83782,341.76495 c -10.76069,-0.38848 -21.16194,-1.2652 -31.875,-2.68672 -8.99356,-1.19336 -16.57413,-2.45567 -16.93915,-2.82069 -0.141,-0.141 3.79082,-4.44495 8.73739,-9.56433 l 8.99375,-9.30797 5.99653,0.92937 c 10.28562,1.5941 18.84122,2.30527 30.60732,2.54417 6.24479,0.12679 11.35561,0.34531 11.35739,0.48561 0.002,0.14029 0.47052,4.46259 1.04166,9.60511 0.57115,5.14252 1.03845,9.78315 1.03845,10.3125 0,0.95455 -0.0403,0.96194 -4.89584,0.89818 -2.69271,-0.0354 -9.02083,-0.21321 -14.0625,-0.39523 z"
       style="fill:#28170b;fill-opacity:1;stroke:#000000;stroke-width:0.20833333;stroke-linecap:butt;stroke-linejoin:miter;stroke-miterlimit:4;stroke-opacity:1;stroke-dasharray:none" />
    <path
       inkscape:connector-curvature="0"
       id="path4592"
       d="m 413.87949,343.48241 0,-7.90873 1.14583,-0.25712 c 12.88449,-2.89118 27.50785,-7.81946 36.31243,-12.23781 7.99868,-4.01393 12.61336,-7.06544 17.66047,-11.67822 1.25938,-1.151 2.40411,-2.09273 2.54386,-2.09273 0.13974,0 0.25408,3.36244 0.25408,7.47208 l 0,7.47208 -2.65258,2.69204 c -9.14098,9.27698 -25.22845,16.94614 -48.18076,22.96856 -3.09375,0.81176 -5.95312,1.47653 -6.35416,1.47725 -0.66888,10e-4 -0.72917,-0.65255 -0.72917,-7.9074 z"
       style="fill:#28170b;fill-opacity:1;stroke:#000000;stroke-width:0.20833333;stroke-linecap:butt;stroke-linejoin:miter;stroke-miterlimit:4;stroke-opacity:1;stroke-dasharray:none" />
    <path
       inkscape:connector-curvature="0"
       id="path4594"
       d="m 403.70745,325.45573 c -6.09288,-5.04446 -11.07796,-9.31644 -11.07796,-9.49328 0,-0.17684 0.98437,-0.55156 2.1875,-0.83271 1.20312,-0.28114 4.33743,-1.15653 6.96512,-1.94529 12.54424,-3.76547 21.87832,-8.54884 27.90262,-14.29907 l 2.59685,-2.47871 19.62469,4.90695 c 12.14582,3.03694 19.69405,5.11502 19.80669,5.45291 0.29334,0.88003 -6.49002,7.22166 -10.63839,9.94563 -10.72864,7.0448 -27.75964,13.69008 -45.38796,17.70981 -0.70424,0.16059 -3.32241,-1.79908 -11.97916,-8.96624 z"
       style="fill:#28170b;fill-opacity:1;stroke:#000000;stroke-width:0.20833333;stroke-linecap:butt;stroke-linejoin:miter;stroke-miterlimit:4;stroke-opacity:1;stroke-dasharray:none" />
    <path
       inkscape:connector-curvature="0"
       id="path4596"
       d="m 450.26423,280.93068 -17.5736,-1.60811 -2.21807,-2.35075 c -3.15681,-3.34563 -6.2713,-5.63238 -11.22994,-8.24533 -4.61332,-2.43098 -11.60845,-5.34076 -14.72705,-6.12603 -1.70779,-0.43003 -2.63906,-1.01554 -2.2403,-1.40856 0.50688,-0.49958 19.98124,-3.59649 21.39589,-3.40248 2.39906,0.32903 11.96123,3.33834 17.63487,5.54988 13.01373,5.07265 25.48371,12.77643 29.2558,18.07384 l 0.87441,1.228 -1.79921,-0.0512 c -0.98957,-0.0281 -9.70732,-0.77482 -19.3728,-1.65928 l 0,0 z"
       style="fill:#28170b;fill-opacity:1;stroke:#000000;stroke-width:0.20833333;stroke-linecap:butt;stroke-linejoin:miter;stroke-miterlimit:4;stroke-opacity:1;stroke-dasharray:none" />
    <path
       inkscape:connector-curvature="0"
       id="path4598"
       d="m 373.87949,255.93357 c -1.26042,-0.19448 -5.28536,-0.64915 -8.94431,-1.01038 -3.65896,-0.36124 -6.72102,-0.72517 -6.80459,-0.80874 -0.3141,-0.31409 0.75404,-1.74792 2.77155,-3.7204 l 2.0853,-2.03875 8.67519,0.71325 c 7.97266,0.65549 18.06845,1.78529 18.33499,2.05183 0.25292,0.25292 -12.23182,5.26655 -12.99557,5.21877 -0.45699,-0.0286 -1.86214,-0.2111 -3.12256,-0.40558 z"
       style="fill:#28170b;fill-opacity:1;stroke:#000000;stroke-width:0.20833333;stroke-linecap:butt;stroke-linejoin:miter;stroke-miterlimit:4;stroke-opacity:1;stroke-dasharray:none" />
    <path
       inkscape:connector-curvature="0"
       id="path4600"
       d="m 315.20625,252.18687 c -1.67654,-1.41584 -2.89529,-2.71511 -2.70834,-2.88728 0.3876,-0.35695 15.18541,-1.25184 20.60033,-1.2458 l 3.59375,0.004 0.26042,1.30209 c 0.14323,0.71614 0.26041,1.99972 0.26041,2.85239 l 0,1.55031 -7.77279,0.28941 c -4.27504,0.15918 -8.54067,0.38385 -9.47917,0.49927 -1.60462,0.19733 -1.88813,0.0564 -4.75461,-2.3644 l 0,0 z"
       style="fill:#28170b;fill-opacity:1;stroke:#000000;stroke-width:0.20833333;stroke-linecap:butt;stroke-linejoin:miter;stroke-miterlimit:4;stroke-opacity:1;stroke-dasharray:none" />
    <path
       inkscape:connector-curvature="0"
       id="path4602"
       d="m 256.05885,263.75402 c -5.56437,-0.51316 -9.22398,-1.0207 -9.14161,-1.26781 0.18369,-0.55107 6.9907,-2.83188 14.63879,-4.90499 l 6.21821,-1.68552 8.26096,1.99191 c 4.54353,1.09555 8.26096,2.1151 8.26096,2.26568 0,0.15058 -1.54688,0.69749 -3.4375,1.21537 -1.89063,0.51787 -4.92652,1.48479 -6.74642,2.1487 -3.94531,1.43927 -4.88018,1.45152 -18.05339,0.23666 l 0,0 z"
       style="fill:#28170b;fill-opacity:1;stroke:#000000;stroke-width:0.20833333;stroke-linecap:butt;stroke-linejoin:miter;stroke-miterlimit:4;stroke-opacity:1;stroke-dasharray:none" />
    <path
       sodipodi:type="arc"
       style="fill:#1e1e1e;fill-opacity:0;stroke:#000000;stroke-width:0.5;stroke-linecap:butt;stroke-linejoin:miter;stroke-miterlimit:4;stroke-opacity:1;stroke-dasharray:none"
       id="path4604"
       sodipodi:cx="342.5"
       sodipodi:cy="311.83334"
       sodipodi:rx="134.16667"
       sodipodi:ry="47.5"
       d="m 476.66667,311.83334 a 134.16667,47.5 0 1 1 -268.33334,0 134.16667,47.5 0 1 1 268.33334,0 z" />
    <path
       d="m 476.66667,311.83334 a 134.16667,47.5 0 1 1 -268.33334,0 134.16667,47.5 0 1 1 268.33334,0 z"
       sodipodi:ry="47.5"
       sodipodi:rx="134.16667"
       sodipodi:cy="311.83334"
       sodipodi:cx="342.5"
       id="path4606"
       style="fill:#ffffff;fill-opacity:1;stroke:#000000;stroke-width:0.50000000000000000;stroke-linecap:butt;stroke-linejoin:miter;stroke-miterlimit:4;stroke-opacity:1;stroke-dasharray:none"
       sodipodi:type="arc"
       transform="translate(0,-16.834175)" />
    <path
       style="fill:none;stroke:#000000;stroke-width:1px;stroke-linecap:butt;stroke-linejoin:miter;stroke-opacity:1"
       d="m 208.5965,294.92506 0,20.32932"
       id="path4608"
       inkscape:connector-curvature="0" />
    <path
       inkscape:connector-curvature="0"
       id="path4610"
       d="m 476.20486,295.27331 0,20.32932"
       style="fill:none;stroke:#000000;stroke-width:1px;stroke-linecap:butt;stroke-linejoin:miter;stroke-opacity:1" />
    <path
       style="fill:none;stroke:#000000;stroke-width:1px;stroke-linecap:butt;stroke-linejoin:miter;stroke-opacity:1"
       d="M 392.14964,251.02551 228.33657,319.96842"
       id="path4612"
       inkscape:connector-curvature="0" />
    <path
       style="fill:none;stroke:#000000;stroke-width:1px;stroke-linecap:butt;stroke-linejoin:miter;stroke-opacity:1"
       d="m 268.70058,255.44493 c 203.88245,50.08673 203.88245,50.38135 203.88245,50.38135"
       id="path4614"
       inkscape:connector-curvature="0" />
    <path
       style="fill:none;stroke:#000000;stroke-width:1px;stroke-linecap:butt;stroke-linejoin:miter;stroke-opacity:1"
       d="m 337.34886,247.19535 c 10.31197,95.16478 10.31197,95.45941 10.31197,95.45941"
       id="path4616"
       inkscape:connector-curvature="0" />
    <path
       style="fill:none;stroke:#000000;stroke-width:1px;stroke-linecap:butt;stroke-linejoin:miter;stroke-opacity:1"
       d="m 309.65385,248.37386 c 104.59287,86.62058 104.59287,86.62058 104.59287,86.62058"
       id="path4618"
       inkscape:connector-curvature="0" />
    <path
       style="fill:none;stroke:#000000;stroke-width:1px;stroke-linecap:butt;stroke-linejoin:miter;stroke-opacity:1"
       d="m 362.39223,248.07923 c -84.55819,88.09372 -84.55819,88.09372 -84.55819,88.09372"
       id="path4620"
       inkscape:connector-curvature="0" />
    <path
       style="fill:none;stroke:#000000;stroke-width:1px;stroke-linecap:butt;stroke-linejoin:miter;stroke-opacity:1"
       d="m 242.18407,263.10525 c 229.80971,20.32932 229.80971,20.32932 229.80971,20.32932"
       id="path4622"
       inkscape:connector-curvature="0" />
    <path
       style="fill:none;stroke:#000000;stroke-width:1px;stroke-linecap:butt;stroke-linejoin:miter;stroke-opacity:1"
       d="M 423.67481,256.62344 C 208.89113,294.92505 208.5965,294.92505 208.5965,294.92505"
       id="path4624"
       inkscape:connector-curvature="0" />
    <path
       d="m 476.66667,311.83334 a 134.16667,47.5 0 1 1 -268.33334,0 134.16667,47.5 0 1 1 268.33334,0 z"
       sodipodi:ry="47.5"
       sodipodi:rx="134.16667"
       sodipodi:cy="311.83334"
       sodipodi:cx="342.5"
       id="path4626"
       style="fill:#ffffff;fill-opacity:1;stroke:#000000;stroke-width:0.5;stroke-linecap:butt;stroke-linejoin:miter;stroke-miterlimit:4;stroke-opacity:1;stroke-dasharray:none"
       sodipodi:type="arc"
       transform="matrix(0.70347007,0,0,0.70347007,99.769147,68.097741)" />
    <path
       style="fill:#000000;fill-opacity:1;stroke:#000000;stroke-width:0.02604167;stroke-linecap:butt;stroke-linejoin:miter;stroke-miterlimit:4;stroke-opacity:1;stroke-dasharray:none"
       d="m 209.07093,303.43809 c -7.1e-4,-1.40126 0.009,-2.53736 0.0218,-2.52468 0.0127,0.0127 0.15123,0.35057 0.30787,0.75087 0.15665,0.40029 0.39428,0.96002 0.52806,1.24384 l 0.24324,0.51604 -0.26143,0.55167 c -0.14378,0.30342 -0.39121,0.8798 -0.54982,1.28084 l -0.28839,0.72916 -0.001,-2.54774 0,0 z"
       id="path4628"
       inkscape:connector-curvature="0" />
    <path
       style="fill:none;stroke:#000000;stroke-width:1px;stroke-linecap:butt;stroke-linejoin:miter;stroke-opacity:1"
       d="m 228.04194,319.96842 0,16.49916"
       id="path4630"
       inkscape:connector-curvature="0" />
    <path
       style="fill:none;stroke:#000000;stroke-width:1.01698089px;stroke-linecap:butt;stroke-linejoin:miter;stroke-opacity:1"
       d="m 277.53941,336.48471 0,16.75953"
       id="path4632"
       inkscape:connector-curvature="0" />
    <path
       style="fill:none;stroke:#000000;stroke-width:1px;stroke-linecap:butt;stroke-linejoin:miter;stroke-opacity:1"
       d="m 347.66083,342.36013 c 0,17.08842 0,17.08842 0,17.08842"
       id="path4634"
       inkscape:connector-curvature="0" />
    <path
       style="fill:none;stroke:#000000;stroke-width:1px;stroke-linecap:butt;stroke-linejoin:miter;stroke-opacity:1"
       d="m 413.36284,334.99444 0,17.08841"
       id="path4636"
       inkscape:connector-curvature="0" />
    <path
       style="fill:none;stroke:#000000;stroke-width:1.00781739px;stroke-linecap:butt;stroke-linejoin:miter;stroke-opacity:1"
       d="m 472.2884,305.83486 0,17.95513"
       id="path4638"
       inkscape:connector-curvature="0" />
    <path
       style="fill:#28170b;fill-opacity:1;stroke:#000000;stroke-width:0.20833333;stroke-linecap:butt;stroke-linejoin:miter;stroke-miterlimit:4;stroke-opacity:1;stroke-dasharray:none"
       d="m 225.67237,317.92175 c -3.70025,-2.25946 -9.08858,-6.73829 -11.29213,-9.38613 -1.15939,-1.39315 -2.78863,-3.91019 -3.62053,-5.59344 -1.2752,-2.58018 -1.49237,-3.41285 -1.38389,-5.30615 l 0.12867,-2.24571 18.1061,-3.22149 c 9.95835,-1.77181 18.25522,-3.12932 18.4375,-3.01667 0.18227,0.11265 0.3314,0.53881 0.3314,0.94701 0,1.42106 2.50181,5.73511 4.75119,8.19282 1.24544,1.36078 3.86037,3.5054 5.81096,4.76581 1.95059,1.26042 3.55737,2.38542 3.57061,2.5 0.0248,0.21444 -32.09274,13.79076 -32.46609,13.72366 -0.11459,-0.0206 -1.18279,-0.63246 -2.37379,-1.35971 z"
       id="path4640"
       inkscape:connector-curvature="0" />
    <path
       style="fill:#28170b;fill-opacity:1;stroke:#000000;stroke-width:0.20833333;stroke-linecap:butt;stroke-linejoin:miter;stroke-miterlimit:4;stroke-opacity:1;stroke-dasharray:none"
       d="m 223.67233,333.42255 c -6.63664,-4.44042 -12.64298,-11.28758 -13.92823,-15.87804 -0.69689,-2.48904 -0.4639,-11.31345 0.31871,-12.07116 0.46086,-0.44619 0.7475,-0.28598 1.64207,0.91779 2.14352,2.88439 8.2784,8.62274 11.38092,10.64528 1.74055,1.13468 3.42805,2.25055 3.75,2.47972 0.48031,0.34189 0.54797,1.82711 0.37702,8.27627 l -0.20833,7.8596 -3.33216,-2.22946 z"
       id="path4642"
       inkscape:connector-curvature="0" />
    <path
       style="fill:#28170b;fill-opacity:1;stroke:#000000;stroke-width:0.20833333;stroke-linecap:butt;stroke-linejoin:miter;stroke-miterlimit:4;stroke-opacity:1;stroke-dasharray:none"
       d="m 323.04616,358.44582 c -15.12626,-0.86886 -35.01631,-3.21544 -44.0625,-5.19839 -0.93208,-0.20432 -0.9375,-0.25126 -0.9375,-8.11423 0,-6.05068 0.12236,-7.90808 0.52083,-7.90597 0.28646,0.002 2.67708,0.37682 5.3125,0.834 16.98535,2.94656 35.27803,4.46347 56.875,4.71636 l 6.25,0.0732 0.11316,8.02018 0.11317,8.02019 -9.27983,-0.0611 c -5.10391,-0.0336 -11.81108,-0.20651 -14.90483,-0.38421 z"
       id="path4644"
       inkscape:connector-curvature="0" />
    <path
       style="fill:#28170b;fill-opacity:1;stroke:#000000;stroke-width:0.20833333;stroke-linecap:butt;stroke-linejoin:miter;stroke-miterlimit:4;stroke-opacity:1;stroke-dasharray:none"
       d="m 327.83782,341.76495 c -10.76069,-0.38848 -21.16194,-1.2652 -31.875,-2.68672 -8.99356,-1.19336 -16.57413,-2.45567 -16.93915,-2.82069 -0.141,-0.141 3.79082,-4.44495 8.73739,-9.56433 l 8.99375,-9.30797 5.99653,0.92937 c 10.28562,1.5941 18.84122,2.30527 30.60732,2.54417 6.24479,0.12679 11.35561,0.34531 11.35739,0.48561 0.002,0.14029 0.47052,4.46259 1.04166,9.60511 0.57115,5.14252 1.03845,9.78315 1.03845,10.3125 0,0.95455 -0.0403,0.96194 -4.89584,0.89818 -2.69271,-0.0354 -9.02083,-0.21321 -14.0625,-0.39523 z"
       id="path4646"
       inkscape:connector-curvature="0" />
    <path
       style="fill:#28170b;fill-opacity:1;stroke:#000000;stroke-width:0.20833333;stroke-linecap:butt;stroke-linejoin:miter;stroke-miterlimit:4;stroke-opacity:1;stroke-dasharray:none"
       d="m 413.87949,343.48241 0,-7.90873 1.14583,-0.25712 c 12.88449,-2.89118 27.50785,-7.81946 36.31243,-12.23781 7.99868,-4.01393 12.61336,-7.06544 17.66047,-11.67822 1.25938,-1.151 2.40411,-2.09273 2.54386,-2.09273 0.13974,0 0.25408,3.36244 0.25408,7.47208 l 0,7.47208 -2.65258,2.69204 c -9.14098,9.27698 -25.22845,16.94614 -48.18076,22.96856 -3.09375,0.81176 -5.95312,1.47653 -6.35416,1.47725 -0.66888,10e-4 -0.72917,-0.65255 -0.72917,-7.9074 z"
       id="path4648"
       inkscape:connector-curvature="0" />
    <path
       style="fill:#28170b;fill-opacity:1;stroke:#000000;stroke-width:0.20833333;stroke-linecap:butt;stroke-linejoin:miter;stroke-miterlimit:4;stroke-opacity:1;stroke-dasharray:none"
       d="m 403.70745,325.45573 c -6.09288,-5.04446 -11.07796,-9.31644 -11.07796,-9.49328 0,-0.17684 0.98437,-0.55156 2.1875,-0.83271 1.20312,-0.28114 4.33743,-1.15653 6.96512,-1.94529 12.54424,-3.76547 21.87832,-8.54884 27.90262,-14.29907 l 2.59685,-2.47871 19.62469,4.90695 c 12.14582,3.03694 19.69405,5.11502 19.80669,5.45291 0.29334,0.88003 -6.49002,7.22166 -10.63839,9.94563 -10.72864,7.0448 -27.75964,13.69008 -45.38796,17.70981 -0.70424,0.16059 -3.32241,-1.79908 -11.97916,-8.96624 z"
       id="path4650"
       inkscape:connector-curvature="0" />
    <path
       style="fill:#28170b;fill-opacity:1;stroke:#000000;stroke-width:0.20833333;stroke-linecap:butt;stroke-linejoin:miter;stroke-miterlimit:4;stroke-opacity:1;stroke-dasharray:none"
       d="m 450.26423,280.93068 -17.5736,-1.60811 -2.21807,-2.35075 c -3.15681,-3.34563 -6.2713,-5.63238 -11.22994,-8.24533 -4.61332,-2.43098 -11.60845,-5.34076 -14.72705,-6.12603 -1.70779,-0.43003 -2.63906,-1.01554 -2.2403,-1.40856 0.50688,-0.49958 19.98124,-3.59649 21.39589,-3.40248 2.39906,0.32903 11.96123,3.33834 17.63487,5.54988 13.01373,5.07265 25.48371,12.77643 29.2558,18.07384 l 0.87441,1.228 -1.79921,-0.0512 c -0.98957,-0.0281 -9.70732,-0.77482 -19.3728,-1.65928 l 0,0 z"
       id="path4652"
       inkscape:connector-curvature="0" />
    <path
       style="fill:#28170b;fill-opacity:1;stroke:#000000;stroke-width:0.20833333;stroke-linecap:butt;stroke-linejoin:miter;stroke-miterlimit:4;stroke-opacity:1;stroke-dasharray:none"
       d="m 373.87949,255.93357 c -1.26042,-0.19448 -5.28536,-0.64915 -8.94431,-1.01038 -3.65896,-0.36124 -6.72102,-0.72517 -6.80459,-0.80874 -0.3141,-0.31409 0.75404,-1.74792 2.77155,-3.7204 l 2.0853,-2.03875 8.67519,0.71325 c 7.97266,0.65549 18.06845,1.78529 18.33499,2.05183 0.25292,0.25292 -12.23182,5.26655 -12.99557,5.21877 -0.45699,-0.0286 -1.86214,-0.2111 -3.12256,-0.40558 z"
       id="path4654"
       inkscape:connector-curvature="0" />
    <path
       style="fill:#28170b;fill-opacity:1;stroke:#000000;stroke-width:0.20833333;stroke-linecap:butt;stroke-linejoin:miter;stroke-miterlimit:4;stroke-opacity:1;stroke-dasharray:none"
       d="m 315.20625,252.18687 c -1.67654,-1.41584 -2.89529,-2.71511 -2.70834,-2.88728 0.3876,-0.35695 15.18541,-1.25184 20.60033,-1.2458 l 3.59375,0.004 0.26042,1.30209 c 0.14323,0.71614 0.26041,1.99972 0.26041,2.85239 l 0,1.55031 -7.77279,0.28941 c -4.27504,0.15918 -8.54067,0.38385 -9.47917,0.49927 -1.60462,0.19733 -1.88813,0.0564 -4.75461,-2.3644 l 0,0 z"
       id="path4656"
       inkscape:connector-curvature="0" />
    <path
       style="fill:#28170b;fill-opacity:1;stroke:#000000;stroke-width:0.20833333;stroke-linecap:butt;stroke-linejoin:miter;stroke-miterlimit:4;stroke-opacity:1;stroke-dasharray:none"
       d="m 256.05885,263.75402 c -5.56437,-0.51316 -9.22398,-1.0207 -9.14161,-1.26781 0.18369,-0.55107 6.9907,-2.83188 14.63879,-4.90499 l 6.21821,-1.68552 8.26096,1.99191 c 4.54353,1.09555 8.26096,2.1151 8.26096,2.26568 0,0.15058 -1.54688,0.69749 -3.4375,1.21537 -1.89063,0.51787 -4.92652,1.48479 -6.74642,2.1487 -3.94531,1.43927 -4.88018,1.45152 -18.05339,0.23666 l 0,0 z"
       id="path4658"
       inkscape:connector-curvature="0" />
  </g>
</svg>
